<?xml version="1.0" encoding="UTF-8"?>
<svg version="1.1" xmlns="http://www.w3.org/2000/svg" width="1600" height="1400">
<path d="M0 0 C1.25628204 -0.00525696 2.51256409 -0.01051392 3.80691528 -0.01593018 C7.23268224 -0.02682919 10.65790162 -0.02433445 14.08363724 -0.01479292 C17.68068387 -0.00715996 21.27770824 -0.01425198 24.87475586 -0.01895142 C30.91361659 -0.02439844 36.95236699 -0.01724514 42.99121094 -0.00292969 C49.95771724 0.01339487 56.92396009 0.00810561 63.89046001 -0.0084089 C69.88817177 -0.02205392 75.88580453 -0.02392875 81.8835268 -0.0160929 C85.45851772 -0.01143289 89.0333851 -0.01074514 92.60836792 -0.02070236 C96.59578572 -0.03103397 100.58291202 -0.01668542 104.5703125 0 C106.33171066 -0.00910904 106.33171066 -0.00910904 108.12869263 -0.0184021 C115.84280971 0.04128764 121.7170562 0.77157689 128.09765625 5.45068359 C134.04786677 13.44096629 133.70999269 23.0425243 133.6459198 32.61233521 C133.64723436 34.03235548 133.6498693 35.45237504 133.65370178 36.87239075 C133.6603969 40.75901671 133.64843706 44.64539241 133.63337444 48.53198662 C133.62023145 52.79335104 133.6246611 57.05470476 133.62682819 61.31608391 C133.62842027 69.58018466 133.61459669 77.84418726 133.59532421 86.10826283 C133.57369123 95.67155004 133.57133816 105.23477864 133.56896973 114.7980957 C133.5532303 140.03647384 133.51134683 165.2748302 133.47265625 190.51318359 C133.41078125 246.90193359 133.34890625 303.29068359 133.28515625 361.38818359 C286.73515625 361.38818359 440.18515625 361.38818359 598.28515625 361.38818359 C598.28515625 567.30818359 598.28515625 773.22818359 598.28515625 985.38818359 C361.72265625 985.76318359 361.72265625 985.76318359 286.92749023 985.86621094 C264.87213646 985.90610323 264.87213646 985.90610323 242.81678772 985.94863892 C232.96542939 985.967567 223.11408179 985.98105107 213.26271057 985.99087524 C201.90885725 986.00221637 190.55503975 986.02039197 179.20121181 986.04711238 C173.38984255 986.06057168 167.57851451 986.0708943 161.76712883 986.072438 C156.51573348 986.07389154 151.26443921 986.08443146 146.01307487 986.10232735 C144.11128936 986.10718389 142.20949167 986.10865679 140.30770123 986.10645986 C137.72138953 986.10396615 135.13539953 986.11368891 132.54912472 986.12647057 C131.80702152 986.12282093 131.06491832 986.1191713 130.30032715 986.11541107 C125.64182729 986.15513753 121.71356978 986.98899579 117.28515625 988.38818359 C114.41311646 988.63986588 114.41311646 988.63986588 111.55517578 988.64215088 C110.46182922 988.64779053 109.36848267 988.65343018 108.24200439 988.65924072 C106.47285675 988.65316803 106.47285675 988.65316803 104.66796875 988.64697266 C102.78135529 988.65222961 102.78135529 988.65222961 100.85662842 988.65759277 C97.42275854 988.666673 93.98900949 988.66319065 90.55513763 988.6568346 C86.95228259 988.65175191 83.34943751 988.65647234 79.74658203 988.65960693 C73.69757236 988.66323998 67.64861161 988.65846486 61.59960938 988.64892578 C54.61781709 988.63804249 47.63614164 988.64156853 40.65435219 988.65257859 C34.64734717 988.66167034 28.64037722 988.66292753 22.63336754 988.65770125 C19.05115216 988.65459192 15.46899159 988.65414361 11.88677979 988.66077423 C7.891898 988.66765291 3.89721594 988.65810418 -0.09765625 988.64697266 C-1.27708801 988.65102112 -2.45651978 988.65506958 -3.67169189 988.65924072 C-5.31171173 988.65078125 -5.31171173 988.65078125 -6.98486328 988.64215088 C-7.9279837 988.64139683 -8.87110413 988.64064278 -9.84280396 988.63986588 C-12.71484375 988.38818359 -12.71484375 988.38818359 -15.83490044 987.38881052 C-20.12780167 986.1354703 -24.21915387 986.10650092 -28.66597652 986.12647057 C-29.54895125 986.12247408 -30.43192598 986.1184776 -31.34165752 986.11436001 C-34.30179812 986.10338594 -37.26175177 986.10658466 -40.22190857 986.10971069 C-42.35942293 986.10471517 -44.4969354 986.09884651 -46.63444519 986.09217834 C-52.52221047 986.07635129 -58.40992816 986.07296973 -64.29771213 986.07153937 C-70.73915086 986.06776716 -77.18056388 986.05244126 -83.62198734 986.0385685 C-94.70909306 986.01589142 -105.79619209 986.00092934 -116.88331604 985.99087524 C-132.77123134 985.97643895 -148.65909729 985.94960145 -164.54699707 985.9206543 C-202.74876289 985.85733983 -240.9505558 985.81132469 -279.15234375 985.76318359 C-407.14078125 985.57755859 -407.14078125 985.57755859 -537.71484375 985.38818359 C-537.71484375 779.46818359 -537.71484375 573.54818359 -537.71484375 361.38818359 C-371.72484375 361.38818359 -205.73484375 361.38818359 -34.71484375 361.38818359 C-34.71484375 248.52818359 -34.71484375 135.66818359 -34.71484375 19.38818359 C-32.73484375 19.05818359 -30.75484375 18.72818359 -28.71484375 18.38818359 C-28.55628906 17.72431641 -28.39773438 17.06044922 -28.234375 16.37646484 C-26.75673844 10.7843044 -25.55313109 6.93626098 -20.71484375 3.38818359 C-13.76761983 0.0910865 -7.6146867 -0.03937922 0 0 Z " fill="#E6AF71" transform="translate(793.71484375,103.61181640625)"/>
<path d="M0 0 C45.54 0 91.08 0 138 0 C138 141.24 138 282.48 138 428 C92.46 428 46.92 428 0 428 C0 556.7 0 685.4 0 818 C-165.99 818 -331.98 818 -503 818 C-503 660.92 -503 503.84 -503 342 C-337.01 342 -171.02 342 0 342 C0 229.14 0 116.28 0 0 Z " fill="#F1BF7E" transform="translate(759,123)"/>
<path d="M0 0 C1.63166611 -0.00856522 1.63166611 -0.00856522 3.29629517 -0.01730347 C4.48494171 -0.01842133 5.67358826 -0.01953918 6.89825439 -0.02069092 C8.15395233 -0.02565582 9.40965027 -0.03062073 10.70339966 -0.03573608 C14.14573841 -0.04883641 17.58805767 -0.05530057 21.03041744 -0.05974674 C23.1833389 -0.06268168 25.33625509 -0.06678731 27.48917389 -0.07125092 C34.23171995 -0.08492046 40.97425389 -0.09458941 47.71681285 -0.09845281 C55.48775899 -0.10293046 63.25852897 -0.12046693 71.02942157 -0.1494534 C77.04401848 -0.17110612 83.05856596 -0.18115902 89.07320142 -0.18249393 C92.66169086 -0.18353951 96.25001459 -0.18939443 99.83846283 -0.20731354 C103.84548033 -0.2269339 107.85213158 -0.22249101 111.85919189 -0.21600342 C113.03974152 -0.2252182 114.22029114 -0.23443298 115.43661499 -0.243927 C123.17707816 -0.20470444 129.04717863 0.50753061 135.45001221 5.20294189 C141.40022546 13.19322826 141.06233405 22.7947882 140.99827576 32.36459351 C140.99958603 33.78803234 141.00221653 35.21147045 141.00604326 36.63490474 C141.01271663 40.52314507 141.00079931 44.41113511 140.98570907 48.29934359 C140.97270723 52.50097899 140.97714109 56.70260122 140.97941589 60.9042511 C140.98098601 68.17618252 140.97160418 75.44803295 140.95470238 82.719944 C140.93028144 93.23378642 140.92250394 103.74758984 140.9187384 114.26145755 C140.91217877 131.32107607 140.89223086 148.38065146 140.86383057 165.44024658 C140.83627736 182.00827825 140.81504995 198.57629818 140.80230713 215.14434814 C140.80112487 216.67721652 140.80112487 216.67721652 140.79991873 218.24105193 C140.79600351 223.36788195 140.79221241 228.49471205 140.78848302 233.62154222 C140.75740232 276.1278735 140.70375195 318.63415208 140.63751221 361.14044189 C130.73751221 361.14044189 120.83751221 361.14044189 110.63751221 361.14044189 C110.63751221 248.28044189 110.63751221 135.42044189 110.63751221 19.14044189 C67.07751221 19.14044189 23.51751221 19.14044189 -21.36248779 19.14044189 C-18.96248779 8.34044189 -18.96248779 8.34044189 -15.36248779 4.14044189 C-10.23225653 1.04092717 -5.9233596 0.01865365 0 0 Z " fill="#AB6544" transform="translate(786.3624877929688,103.85955810546875)"/>
<path d="M0 0 C5.98628446 0.27148682 11.4141581 0.83105282 16 5 C20.06259211 10.90248944 21.1256313 16.89585852 21.12304783 23.97199726 C21.12503888 25.17675719 21.12702993 26.38151711 21.12908131 27.62278491 C21.12622848 28.95614981 21.12328289 30.28951452 21.12025452 31.62287903 C21.12069062 33.04200103 21.12156625 34.46112294 21.12284368 35.88024443 C21.12508096 39.7796978 21.12107782 43.67912372 21.11606562 47.57857358 C21.11175032 51.78370562 21.11320831 55.9888361 21.1139679 60.19396973 C21.11449244 67.47960083 21.11135284 74.76522297 21.10573006 82.05085182 C21.09760573 92.58467017 21.09499888 103.11848419 21.09374207 113.65230533 C21.09155302 130.74240848 21.08489691 147.83250686 21.07543945 164.92260742 C21.06626154 181.52482072 21.05918256 198.12703272 21.05493164 214.72924805 C21.05453756 216.26408685 21.05453756 216.26408685 21.05413551 217.82993249 C21.05283048 222.96311575 21.05156677 228.09629902 21.05032361 233.22948229 C21.03995557 275.81965817 21.02234124 318.40982884 21 361 C20.34 361 19.68 361 19 361 C18.99853479 359.91792505 18.99853479 359.91792505 18.99703997 358.81399 C18.93879066 316.07597385 18.86501113 273.33800878 18.77101372 230.60005554 C18.75974531 225.47051253 18.7486069 220.34096925 18.73754883 215.21142578 C18.73534514 214.19020939 18.73314146 213.168993 18.730871 212.11683066 C18.6954813 195.57305078 18.67062661 179.02927096 18.64965298 162.48546724 C18.62790425 145.51488169 18.59486267 128.54434535 18.55129844 111.57380164 C18.52476573 101.09881064 18.50708229 90.62388097 18.50065396 80.14885803 C18.49540503 72.96951238 18.47920474 65.79024396 18.45433434 58.61093967 C18.44030236 54.46646335 18.43115486 50.32212531 18.43499184 46.17762375 C18.43839769 42.38382412 18.42806271 38.59032006 18.40676448 34.79658099 C18.39898795 32.77296542 18.40594717 30.74930983 18.41341704 28.72569311 C18.4039605 27.52242553 18.39450396 26.31915795 18.38476086 25.07942772 C18.38286225 24.04279122 18.38096365 23.00615472 18.37900752 21.93810499 C17.93220614 18.47445507 16.70406894 16.02497656 15 13 C15.66 13 16.32 13 17 13 C16.44449305 9.40094092 15.25112752 8.00090201 12.4375 5.75 C11.79683594 5.22921875 11.15617188 4.7084375 10.49609375 4.171875 C9.75552734 3.59179688 9.75552734 3.59179688 9 3 C8.67 3.66 8.34 4.32 8 5 C7.01 4.34 6.02 3.68 5 3 C3.34450469 2.61500109 1.6777567 2.27206865 0 2 C0 1.34 0 0.68 0 0 Z " fill="#BF714C" transform="translate(906,104)"/>
<path d="M0 0 C47.52 0 95.04 0 144 0 C139.77061397 2.81959069 136.65432416 3.12481246 131.63078308 3.13371277 C129.99694923 3.14011024 129.99694923 3.14011024 128.33010864 3.14663696 C127.13989105 3.14618378 125.94967346 3.14573059 124.72338867 3.14526367 C122.83743233 3.15030159 122.83743233 3.15030159 120.91337585 3.15544128 C117.46696676 3.16426998 114.02058251 3.16661895 110.5741632 3.16725707 C108.41923944 3.16796833 106.26432198 3.17010411 104.1093998 3.17275429 C96.58651962 3.18200467 89.06365716 3.18608965 81.54077148 3.18530273 C74.53689603 3.18470234 67.53309769 3.19524736 60.52924174 3.2110464 C54.50956492 3.2241397 48.48991324 3.22948586 42.47022229 3.22884732 C38.87789372 3.22859282 35.28563367 3.23141758 31.69331932 3.24202538 C27.68375794 3.25354201 23.67436832 3.24894859 19.66479492 3.24291992 C17.88857758 3.25134918 17.88857758 3.25134918 16.07647705 3.25994873 C10.32496586 3.23797092 5.42320296 2.97192659 0 1 C0 0.67 0 0.34 0 0 Z " fill="#BB6E4A" transform="translate(774,1089)"/>
<path d="M0 0 C5.98628446 0.27148682 11.4141581 0.83105282 16 5 C20.35575668 11.3284246 21.14828567 17.43743069 21 25 C20.67 25 20.34 25 20 25 C20 23.02 20 21.04 20 19 C19.34 19 18.68 19 18 19 C17.01 17.02 16.02 15.04 15 13 C15.66 13 16.32 13 17 13 C16.44449305 9.40094092 15.25112752 8.00090201 12.4375 5.75 C11.79683594 5.22921875 11.15617188 4.7084375 10.49609375 4.171875 C9.75552734 3.59179688 9.75552734 3.59179688 9 3 C8.67 3.66 8.34 4.32 8 5 C7.01 4.34 6.02 3.68 5 3 C3.34450469 2.61500109 1.6777567 2.27206865 0 2 C0 1.34 0 0.68 0 0 Z " fill="#CD7950" transform="translate(906,104)"/>
<path d="M0 0 C0 0.66 0 1.32 0 2 C-0.9075 2.12375 -1.815 2.2475 -2.75 2.375 C-9.68652759 3.70894761 -14.18925271 8.01107688 -19 13 C-18.71161525 9.63551128 -18.04879887 8.06210766 -15.9375 5.375 C-11.22251123 1.56288142 -6.15757894 -0.57727303 0 0 Z " fill="#C8764E" transform="translate(786,104)"/>
<path d="M0 0 C2.97 0.33 5.94 0.66 9 1 C8.67 2.32 8.34 3.64 8 5 C7.01 4.34 6.02 3.68 5 3 C3.34450469 2.61500109 1.6777567 2.27206865 0 2 C0 1.34 0 0.68 0 0 Z " fill="#C4734D" transform="translate(906,104)"/>
<path d="M0 0 C-3.03525486 2.02350324 -4.19426202 2.32124018 -7.6875 2.625 C-8.49574219 2.69976563 -9.30398438 2.77453125 -10.13671875 2.8515625 C-10.75160156 2.90054687 -11.36648438 2.94953125 -12 3 C-8.2391768 -0.7608232 -5.0273023 -0.25136512 0 0 Z " fill="#C8764F" transform="translate(918,1089)"/>
</svg>
