<?xml version="1.0" encoding="UTF-8"?>
<svg version="1.1" xmlns="http://www.w3.org/2000/svg" width="1600" height="1400">
<path d="M0 0 C363.33 0 726.66 0 1101 0 C1101 4.62 1101 9.24 1101 14 C1101.99 14 1102.98 14 1104 14 C1104 137.09 1104 260.18 1104 387 C740.34 387 376.68 387 2 387 C2 341.46 2 295.92 2 249 C1.34 249 0.68 249 0 249 C0 166.83 0 84.66 0 0 Z " fill="#DA9F65" transform="translate(274,1013)"/>
<path d="M0 0 C363.33 0 726.66 0 1101 0 C1101 4.62 1101 9.24 1101 14 C1101.99 14 1102.98 14 1104 14 C1104 36.44 1104 58.88 1104 82 C989.49 82 874.98 82 757 82 C757 127.54 757 173.08 757 220 C832.57 220 908.14 220 986 220 C982.48751515 224.09789899 979.16402205 227.96106396 975.38406372 231.74291992 C974.51230499 232.61749847 973.64054626 233.49207703 972.74237061 234.39315796 C971.79460614 235.33897881 970.84678948 236.28474735 969.89892578 237.23046875 C968.88619696 238.24455502 967.87368046 239.25885338 966.86135864 240.27334595 C964.12805392 243.01118466 961.39162535 245.74588053 958.65446329 248.47986221 C955.77927723 251.35250306 952.90654716 254.22759835 950.03341675 257.10229492 C945.20848185 261.92904551 940.38145082 266.75369229 935.55322266 271.57714844 C929.98687328 277.13805945 924.42413112 282.70255935 918.86325467 288.26894283 C914.07338915 293.06336027 909.28156017 297.85580875 904.48811328 302.64664555 C901.63198366 305.50122342 898.77651658 308.35645524 895.92282486 311.21347046 C893.23776618 313.90143805 890.55023431 316.58690903 887.86085129 319.27054977 C886.8796805 320.25040892 885.89933987 321.23110022 884.91993713 322.21272659 C883.57226056 323.56317828 882.22113799 324.91018831 880.86990356 326.25708008 C879.7422568 327.3841613 879.7422568 327.3841613 878.5918293 328.53401184 C877.15793305 329.8982881 875.70144488 331.24326452 874.16707844 332.49347562 C870.2907757 335.67898759 867.42972337 338.6701497 864.74559498 342.92577076 C859.11138315 351.10739977 852.79280852 357.18257094 842.9324472 359.26289153 C828.12478258 361.67051297 812.91308484 361.52152248 797.95182002 361.7139219 C791.74060352 361.80279665 785.53234856 362.00269882 779.32338307 362.18678347 C762.6885095 362.67332679 746.05213489 362.95317127 729.41210711 363.19008852 C723.87918798 363.268939 718.34640103 363.35427303 712.81364274 363.44367433 C683.21701503 363.92089393 653.62024851 364.33784076 624.02054882 364.56478405 C617.17360451 364.61810673 610.32666693 364.67224075 603.47973633 364.72729492 C602.62931256 364.73405931 601.77888879 364.74082369 600.90269461 364.74779306 C573.50921306 364.96816185 546.13960354 365.5466578 518.75711102 366.3388975 C490.46007967 367.15605817 462.17555105 367.65023709 433.86640955 367.74376424 C429.82836462 367.75712249 425.79033852 367.77370603 421.75231361 367.79210854 C420.95803838 367.79558371 420.16376314 367.79905889 419.34541896 367.80263938 C408.33187205 367.85813374 397.34197562 368.12407139 386.33731964 368.56370176 C367.81406077 369.30255388 349.33560467 369.63168825 330.80151367 369.10229492 C330.1019523 369.08295739 329.40239093 369.06361986 328.68163073 369.04369634 C279.77263254 367.59324702 249.34116878 350.47771308 216.13749548 315.40930025 C201.78953478 300.10686136 188.32885555 284.12492199 175.53542215 267.50144368 C171.05070949 261.70929153 166.28966146 256.14568125 161.08422852 250.98657227 C160.40405167 250.30969864 159.72387482 249.63282501 159.02308655 248.93544006 C157.9617173 247.88651833 157.9617173 247.88651833 156.87890625 246.81640625 C156.13414536 246.07543198 155.38938446 245.3344577 154.62205505 244.57102966 C152.27130637 242.23238559 149.91731445 239.89704968 147.5625 237.5625 C144.43597575 234.4624637 141.31271076 231.35919697 138.19140625 228.25390625 C137.10878258 227.18373009 137.10878258 227.18373009 136.00428772 226.0919342 C135.34617599 225.4371257 134.68806427 224.7823172 134.01000977 224.10766602 C133.42711685 223.53000992 132.84422394 222.95235382 132.2436676 222.35719299 C131 221 131 221 131 220 C292.04 220 453.08 220 619 220 C619 174.46 619 128.92 619 82 C414.73 82 210.46 82 0 82 C0 54.94 0 27.88 0 0 Z " fill="#DB6550" transform="translate(274,1013)"/>
<path d="M0 0 C135.96 0 271.92 0 412 0 C412 45.54 412 91.08 412 138 C276.04 138 140.08 138 0 138 C0 92.46 0 46.92 0 0 Z " fill="#D87F70" transform="translate(481,1095)"/>
<path d="M0 0 C363.33 0 726.66 0 1101 0 C1101 4.62 1101 9.24 1101 14 C1101.99 14 1102.98 14 1104 14 C1104 26.21 1104 38.42 1104 51 C739.68 51 375.36 51 0 51 C0 34.17 0 17.34 0 0 Z " fill="#F37057" transform="translate(274,1013)"/>
<path d="M0 0 C364.32 0 728.64 0 1104 0 C1104 10.23 1104 20.46 1104 31 C989.49 31 874.98 31 757 31 C757 76.54 757 122.08 757 169 C711.46 169 665.92 169 619 169 C619 123.46 619 77.92 619 31 C414.73 31 210.46 31 0 31 C0 20.77 0 10.54 0 0 Z " fill="#DD5E46" transform="translate(274,1064)"/>
<path d="M0 0 C71.28 0 142.56 0 216 0 C216 45.54 216 91.08 216 138 C151.91844794 149.1701788 151.91844794 149.1701788 129.55615234 133.85333252 C112.71390046 121.5515599 98.16764275 106.15131185 83.9375 91 C83.41068555 90.44021123 82.88387111 89.88042247 82.34109259 89.30367041 C68.83015594 74.93369013 55.73491352 60.23342475 42.91968441 45.2399683 C36.69381675 37.93754938 36.69381675 37.93754938 30.08422852 30.98657227 C29.40405167 30.30969864 28.72387482 29.63282501 28.02308655 28.93544006 C27.31550705 28.23615891 26.60792755 27.53687775 25.87890625 26.81640625 C25.13414536 26.07543198 24.38938446 25.3344577 23.62205505 24.57102966 C21.27130637 22.23238559 18.91731445 19.89704968 16.5625 17.5625 C13.43597575 14.4624637 10.31271076 11.35919697 7.19140625 8.25390625 C6.10878258 7.18373009 6.10878258 7.18373009 5.00428772 6.0919342 C4.34617599 5.4371257 3.68806427 4.7823172 3.01000977 4.10766602 C2.42711685 3.53000992 1.84422394 2.95235382 1.2436676 2.35719299 C0 1 0 1 0 0 Z " fill="#DA6E5B" transform="translate(405,1233)"/>
<path d="M0 0 C46.2 0 92.4 0 140 0 C140 45.54 140 91.08 140 138 C93.8 138 47.6 138 0 138 C0 92.46 0 46.92 0 0 Z " fill="#D1B3B3" transform="translate(481,1095)"/>
<path d="M0 0 C45.54 0 91.08 0 138 0 C138 45.54 138 91.08 138 138 C92.46 138 46.92 138 0 138 C0 92.46 0 46.92 0 0 Z " fill="#DD5E46" transform="translate(893,1233)"/>
<path d="M0 0 C45.54 0 91.08 0 138 0 C138 45.54 138 91.08 138 138 C92.46 138 46.92 138 0 138 C0 92.46 0 46.92 0 0 Z " fill="#D1B3B3" transform="translate(1031,1095)"/>
<path d="M0 0 C45.54 0 91.08 0 138 0 C138 45.54 138 91.08 138 138 C92.46 138 46.92 138 0 138 C0 92.46 0 46.92 0 0 Z " fill="#D87F70" transform="translate(893,1095)"/>
<path d="M0 0 C44.22 0 88.44 0 134 0 C134 45.54 134 91.08 134 138 C89.78 138 45.56 138 0 138 C0 92.46 0 46.92 0 0 Z " fill="#DA6E5B" transform="translate(759,1233)"/>
<path d="M0 0 C44.22 0 88.44 0 134 0 C134 45.54 134 91.08 134 138 C89.78 138 45.56 138 0 138 C0 92.46 0 46.92 0 0 Z " fill="#D1B3B3" transform="translate(759,1095)"/>
<path d="M0 0 C45.54 0 91.08 0 138 0 C143.47300956 91.47744553 143.47300956 91.47744553 127.45948792 109.96204376 C119.02731058 119.21029358 108.7975614 126.96244592 98.195755 133.55030823 C95.88445436 134.97851958 95.88445436 134.97851958 93.78112793 137.15446472 C89.84750146 139.76478924 86.69509362 139.49373841 82.07885742 139.36230469 C80.72494007 139.34815962 80.72494007 139.34815962 79.34367085 139.33372879 C76.43031263 139.29869417 73.51832006 139.23584865 70.60546875 139.171875 C68.80361422 139.14611031 67.00173259 139.12217398 65.1998291 139.10009766 C58.52870194 139.00555405 51.85811399 138.87563867 45.1875 138.75 C30.275625 138.5025 15.36375 138.255 0 138 C0 92.46 0 46.92 0 0 Z " fill="#D87F6F" transform="translate(1169,1095)"/>
<path d="M0 0 C45.54 0 91.08 0 138 0 C138 45.54 138 91.08 138 138 C94.67681411 142.76164746 94.67681411 142.76164746 82.1953125 141.75 C80.89509344 141.64480042 80.89509344 141.64480042 79.56860733 141.53747559 C51.87004924 138.88096041 31.63744371 120.61871781 14.29641724 100.03317261 C3.29599726 86.39470069 -2.33494317 73.29414685 -3.75 55.8046875 C-3.81513794 55.00102879 -3.88027588 54.19737007 -3.9473877 53.36935806 C-5.12493479 35.5190147 -1.93904244 17.64210741 0 0 Z " fill="#D87F6F" transform="translate(343,1095)"/>
<path d="M0 0 C89.76 0 179.52 0 272 0 C272 9.57 272 19.14 272 29 C182.24 29 92.48 29 0 29 C0 19.43 0 9.86 0 0 Z " fill="#D87F70" transform="translate(621,1371)"/>
<path d="M0 0 C46.2 0 92.4 0 140 0 C140 16.83 140 33.66 140 51 C93.8 51 47.6 51 0 51 C0 34.17 0 17.34 0 0 Z " fill="#F08472" transform="translate(481,1013)"/>
<path d="M0 0 C45.54 0 91.08 0 138 0 C138 16.83 138 33.66 138 51 C92.46 51 46.92 51 0 51 C0 34.17 0 17.34 0 0 Z " fill="#F08472" transform="translate(1031,1013)"/>
<path d="M0 0 C45.54 0 91.08 0 138 0 C138 16.83 138 33.66 138 51 C92.46 51 46.92 51 0 51 C0 34.17 0 17.34 0 0 Z " fill="#F37057" transform="translate(893,1013)"/>
<path d="M0 0 C44.22 0 88.44 0 134 0 C134 16.83 134 33.66 134 51 C89.78 51 45.56 51 0 51 C0 34.17 0 17.34 0 0 Z " fill="#F08472" transform="translate(759,1013)"/>
<path d="M0 0 C46.2 0 92.4 0 140 0 C140 10.23 140 20.46 140 31 C93.8 31 47.6 31 0 31 C0 20.77 0 10.54 0 0 Z " fill="#DA6E5B" transform="translate(481,1064)"/>
<path d="M0 0 C45.54 0 91.08 0 138 0 C138 10.23 138 20.46 138 31 C92.46 31 46.92 31 0 31 C0 20.77 0 10.54 0 0 Z " fill="#DA6E5B" transform="translate(1031,1064)"/>
<path d="M0 0 C45.54 0 91.08 0 138 0 C138 10.23 138 20.46 138 31 C92.46 31 46.92 31 0 31 C0 20.77 0 10.54 0 0 Z " fill="#DD5E46" transform="translate(893,1064)"/>
<path d="M0 0 C30.03 0 60.06 0 91 0 C84.24947776 7.87560928 84.24947776 7.87560928 81.14093018 10.99278259 C80.43719772 11.70078003 79.73346527 12.40877747 79.00840759 13.13822937 C78.25701004 13.88917374 77.50561249 14.6401181 76.73144531 15.41381836 C75.92423538 16.2243869 75.11702545 17.03495544 74.28535461 17.87008667 C71.63557536 20.52931092 68.98209151 23.18479889 66.328125 25.83984375 C64.48053731 27.69064588 62.63302457 29.54152283 60.7855835 31.39247131 C56.92429938 35.26012707 53.06059013 39.12534915 49.19580078 42.98950195 C44.72520185 47.45949748 40.26024066 51.93507092 35.79781842 56.41322798 C31.49865415 60.72701063 27.19400872 65.03528319 22.88722992 69.34146309 C21.05629855 71.1735782 19.22699693 73.00732346 17.39933014 74.84269524 C14.85456954 77.39718703 12.30363174 79.94534394 9.75097656 82.49194336 C8.61173485 83.63961433 8.61173485 83.63961433 7.44947815 84.81047058 C6.75702499 85.49872925 6.06457184 86.18698792 5.35113525 86.89610291 C4.44748419 87.80057112 4.44748419 87.80057112 3.52557755 88.72331142 C2 90 2 90 0 90 C0 60.3 0 30.6 0 0 Z " fill="#DC5E46" transform="translate(1169,1233)"/>
<path d="M0 0 C44.22 0 88.44 0 134 0 C134 10.23 134 20.46 134 31 C89.78 31 45.56 31 0 31 C0 20.77 0 10.54 0 0 Z " fill="#DA6E5B" transform="translate(759,1064)"/>
<path d="M0 0 C23.43 0 46.86 0 71 0 C71 23.99490327 71 23.99490327 62.36034489 33.33345604 C61.69793513 33.93790865 61.03552538 34.54236126 60.3530426 35.16513062 C59.59859926 35.86626354 58.84415592 36.56739647 58.06685066 37.28977585 C57.29326651 38.00625919 56.51968235 38.72274254 55.72265625 39.4609375 C54.15091864 40.99409176 52.58396646 42.53216566 51.02159119 44.07485962 C46.93108968 48.08769125 42.7785644 52.02962486 38.60894775 55.95996094 C34.35481595 59.99455951 30.16655524 64.09639116 25.97070312 68.19140625 C19.85941093 74.13641409 13.72667631 80.05747671 7.53930664 85.92333984 C6.88835022 86.54332855 6.2373938 87.16331726 5.56671143 87.80209351 C1.1189169 92 1.1189169 92 0 92 C0 61.64 0 31.28 0 0 Z " fill="#D0B2B2" transform="translate(1307,1095)"/>
<path d="M0 0 C45.54 0 91.08 0 138 0 C138 9.57 138 19.14 138 29 C92.46 29 46.92 29 0 29 C0 19.43 0 9.86 0 0 Z " fill="#D87F70" transform="translate(893,1371)"/>
<path d="M0 0 C44.22 0 88.44 0 134 0 C134 9.57 134 19.14 134 29 C89.78 29 45.56 29 0 29 C0 19.43 0 9.86 0 0 Z " fill="#D1B3B3" transform="translate(759,1371)"/>
<path d="M0 0 C22.44 0 44.88 0 68 0 C68 4.62 68 9.24 68 14 C68.99 14 69.98 14 71 14 C71 26.21 71 38.42 71 51 C47.57 51 24.14 51 0 51 C0 34.17 0 17.34 0 0 Z " fill="#F08472" transform="translate(1307,1013)"/>
<path d="M0 0 C22.77 0 45.54 0 69 0 C69 16.83 69 33.66 69 51 C46.23 51 23.46 51 0 51 C0 34.17 0 17.34 0 0 Z " fill="#F08472" transform="translate(274,1013)"/>
<path d="M0 0 C25.08 0 50.16 0 76 0 C76 25.08 76 50.16 76 76 C72.74827117 74.37413559 71.23566939 73.48522402 68.8112793 71.05419922 C68.21353195 70.4595285 67.61578461 69.86485779 66.99992371 69.25216675 C66.36444107 68.6094986 65.72895844 67.96683044 65.07421875 67.3046875 C64.40840286 66.63841339 63.74258698 65.97213928 63.05659485 65.28567505 C61.64806818 63.87412939 60.24197067 62.46015619 58.83813477 61.04394531 C56.71088851 58.89858764 54.57589557 56.76119566 52.43945312 54.625 C51.06723851 53.24786382 49.69547937 51.8702736 48.32421875 50.4921875 C47.69480881 49.86166473 47.06539886 49.23114197 46.41691589 48.58151245 C43.3529916 45.4853957 40.3948365 42.34231122 37.54980469 39.04321289 C33.85080755 34.76734768 29.89873135 30.78908771 25.87890625 26.81640625 C25.13414536 26.07543198 24.38938446 25.3344577 23.62205505 24.57102966 C21.27130637 22.23238559 18.91731445 19.89704968 16.5625 17.5625 C13.43597575 14.4624637 10.31271076 11.35919697 7.19140625 8.25390625 C6.10878258 7.18373009 6.10878258 7.18373009 5.00428772 6.0919342 C4.34617599 5.4371257 3.68806427 4.7823172 3.01000977 4.10766602 C2.42711685 3.53000992 1.84422394 2.95235382 1.2436676 2.35719299 C0 1 0 1 0 0 Z " fill="#DC5E46" transform="translate(405,1233)"/>
<path d="M0 0 C22.77 0 45.54 0 69 0 C69 25.08 69 50.16 69 76 C64.31473772 71.9840609 60.18900023 68.18369763 56.1171875 63.65625 C50.18299081 57.18137907 43.99935442 50.98294995 37.72516632 44.84082031 C36.12839656 43.27692498 34.5344413 41.71021501 32.94134521 40.14257812 C26.35515028 33.66181698 26.35515028 33.66181698 19.73876953 27.21191406 C16.99715083 24.55140247 14.27295506 21.87411477 11.55959702 19.18479919 C10.53319977 18.17377049 9.50055662 17.16903989 8.46149063 16.17103577 C7.01968116 14.78477866 5.60129163 13.3742872 4.18408203 11.96289062 C3.37359406 11.17096313 2.56310608 10.37903564 1.72805786 9.56311035 C0 7 0 7 0 0 Z " fill="#D0B2B2" transform="translate(274,1095)"/>
<path d="M0 0 C29.7 0 59.4 0 90 0 C88.02 2.31 86.04 4.62 84 7 C82.89432337 8.81244803 81.81864769 10.64371833 80.78125 12.49609375 C75.78475611 19.90545068 70.62298112 26.05648316 62 29 C42.01845488 32.61704148 20.06422436 30.21341369 0 29 C0 19.43 0 9.86 0 0 Z " fill="#D0B2B2" transform="translate(1031,1371)"/>
<path d="M0 0 C23.43 0 46.86 0 71 0 C71 10.23 71 20.46 71 31 C47.57 31 24.14 31 0 31 C0 20.77 0 10.54 0 0 Z " fill="#DA6E5B" transform="translate(1307,1064)"/>
<path d="M0 0 C22.77 0 45.54 0 69 0 C69 10.23 69 20.46 69 31 C46.23 31 23.46 31 0 31 C0 20.77 0 10.54 0 0 Z " fill="#DA6E5B" transform="translate(274,1064)"/>
<path d="M0 0 C26.07 0 52.14 0 79 0 C79 9.57 79 19.14 79 29 C71.78997072 29.27681591 64.5985792 29.51508201 57.38745117 29.65917969 C54.9398737 29.71925879 52.49272212 29.80095412 50.04663086 29.90527344 C28.59853363 30.79657754 28.59853363 30.79657754 23.18286133 26.58081055 C20.29010819 23.70853932 18.20249332 20.41588827 16 17 C14.51964984 15.41185963 12.99694432 13.86163803 11.42578125 12.36328125 C10.73935547 11.68458984 10.05292969 11.00589844 9.34570312 10.30664062 C8.67474609 9.64857422 8.00378906 8.99050781 7.3125 8.3125 C5.91053118 6.93586033 4.51065857 5.55708136 3.11328125 4.17578125 C2.51298096 3.58708252 1.91268066 2.99838379 1.29418945 2.3918457 C0 1 0 1 0 0 Z " fill="#D0B2B2" transform="translate(542,1371)"/>
<path d="M0 0 C11.22 0 22.44 0 34 0 C30.10791964 4.54076042 26.25858626 8.90013695 22.05078125 13.1171875 C21.51148483 13.65981232 20.97218842 14.20243713 20.41654968 14.76150513 C19.2893365 15.89373286 18.16081016 17.0246547 17.03100586 18.15429688 C15.3009725 19.88654224 13.57912747 21.62666945 11.85742188 23.3671875 C10.7556973 24.47184206 9.65350071 25.57602609 8.55078125 26.6796875 C8.03824295 27.19941132 7.52570465 27.71913513 6.99763489 28.25460815 C4.66794971 30.56938963 3.16322808 31.94559064 0 33 C0 22.11 0 11.22 0 0 Z " fill="#F0BD7D" transform="translate(274,1013)"/>
<path d="M0 0 C7.92 0 15.84 0 24 0 C24 4.62 24 9.24 24 14 C24.99 14 25.98 14 27 14 C27 18.29 27 22.58 27 27 C20.83626579 21.90160256 15.20402299 16.35339242 9.5625 10.6875 C8.64017578 9.76904297 7.71785156 8.85058594 6.76757812 7.90429688 C5.89681641 7.03224609 5.02605469 6.16019531 4.12890625 5.26171875 C3.33556885 4.46725342 2.54223145 3.67278809 1.72485352 2.85424805 C0 1 0 1 0 0 Z " fill="#F0BD7D" transform="translate(1351,1013)"/>
</svg>
