<?xml version="1.0" encoding="UTF-8"?>
<svg version="1.1" xmlns="http://www.w3.org/2000/svg" width="1600" height="1400">
<path d="M0 0 C363.66 0 727.32 0 1102 0 C1102 182.16 1102 364.32 1102 552 C1102.66 552 1103.32 552 1104 552 C1104 629.55 1104 707.1 1104 787 C740.34 787 376.68 787 2 787 C2 741.46 2 695.92 2 649 C1.34 649 0.68 649 0 649 C0 434.83 0 220.66 0 0 Z " fill="#F1BF7E" transform="translate(274,613)"/>
<path d="M0 0 C334.29 0 668.58 0 1013 0 C1013 114.84 1013 229.68 1013 348 C678.71 348 344.42 348 0 348 C0 233.16 0 118.32 0 0 Z " fill="#AA6544" transform="translate(317,664)"/>
</svg>
