<?xml version="1.0" encoding="UTF-8"?>
<svg version="1.1" xmlns="http://www.w3.org/2000/svg" width="1600" height="1400">
<path d="M0 0 C1.25628204 -0.00525696 2.51256409 -0.01051392 3.80691528 -0.01593018 C7.23268224 -0.02682919 10.65790162 -0.02433445 14.08363724 -0.01479292 C17.68068387 -0.00715996 21.27770824 -0.01425198 24.87475586 -0.01895142 C30.91361659 -0.02439844 36.95236699 -0.01724514 42.99121094 -0.00292969 C49.95771724 0.01339487 56.92396009 0.00810561 63.89046001 -0.0084089 C69.88817177 -0.02205392 75.88580453 -0.02392875 81.8835268 -0.0160929 C85.45851772 -0.01143289 89.0333851 -0.01074514 92.60836792 -0.02070236 C96.59578572 -0.03103397 100.58291202 -0.01668542 104.5703125 0 C105.74457794 -0.00607269 106.91884338 -0.01214539 108.12869263 -0.0184021 C115.84280971 0.04128764 121.7170562 0.77157689 128.09765625 5.45068359 C134.40456771 13.9199647 133.71168874 24.36809566 133.66267967 34.45846558 C133.66581231 36.0906647 133.67025846 37.72286173 133.67589277 39.35505414 C133.68756712 43.84042083 133.68058923 48.3255936 133.67055891 52.8109571 C133.66294769 57.69064263 133.67272901 62.57029846 133.68028891 67.44997978 C133.6911271 76.00235393 133.69079335 84.55467127 133.68314743 93.10704803 C133.6718086 105.82464448 133.67759672 118.54219293 133.68677235 131.25978905 C133.7025789 153.97226029 133.70119668 176.68470624 133.69253561 199.3971799 C133.68499331 219.27306975 133.68301681 239.14895032 133.68660355 259.02484131 C133.6868327 260.3425048 133.68706186 261.66016829 133.68729796 263.01776098 C133.68822936 268.36638927 133.68918536 273.71501755 133.69017725 279.06364583 C133.69292827 294.01528 133.69464007 308.96691419 133.69553566 323.91854858 C133.69559707 324.93984196 133.69559707 324.93984196 133.69565971 325.98176753 C133.69688755 347.67702489 133.69350687 369.37227904 133.68698692 391.0675354 C133.68677618 391.77120248 133.68656543 392.47486955 133.6863483 393.19985987 C133.68291345 404.62696087 133.67925506 416.0540618 133.67557777 427.48116272 C133.66100876 472.80239212 133.66168498 518.12359493 133.67626953 563.44482422 C133.6799331 574.86616005 133.68356625 586.28749588 133.68698692 597.70883179 C133.68719827 598.41208482 133.68740961 599.11533785 133.68762736 599.83990158 C133.69409589 621.51254101 133.69683874 643.18517823 133.69553566 664.8578186 C133.69549491 665.5381809 133.69545415 666.21854319 133.69541217 666.91952252 C133.69447473 681.85454494 133.69257382 696.78956712 133.68980415 711.72458931 C133.68869382 717.73356816 133.68764857 723.74254702 133.68660355 729.75152588 C133.68636631 731.0661459 133.68612908 732.38076593 133.68588466 733.73522292 C133.68247013 753.60015822 133.686467 773.46508322 133.69404221 793.33001709 C133.70261126 815.91400339 133.70049411 838.4979604 133.68419997 861.08194304 C133.67537848 873.72631326 133.67483429 886.37062008 133.6861385 899.01498868 C133.69285339 907.455785 133.68870118 915.89653036 133.67562419 924.33731911 C133.66847234 929.1499715 133.66607993 933.96249772 133.67684214 938.77514625 C133.68653391 943.15367887 133.68241475 947.53197341 133.66730016 951.91048869 C133.66427971 953.4842346 133.66627434 955.05800023 133.67391797 956.63173047 C133.76005647 975.72188901 133.76005647 975.72188901 128.09765625 983.32568359 C120.66957393 988.77294396 113.46904157 988.82238681 104.5703125 988.77636719 C103.31403046 988.78162415 102.05774841 988.7868811 100.76339722 988.79229736 C97.33763026 988.80319638 93.91241088 988.80070163 90.48667526 988.79116011 C86.88962863 988.78352715 83.29260426 988.79061917 79.69555664 988.7953186 C73.65669591 988.80076562 67.61794551 988.79361232 61.57910156 988.77929688 C54.61259526 988.76297232 47.64635241 988.76826158 40.67985249 988.78477609 C34.68214073 988.79842111 28.68450797 988.80029593 22.6867857 988.79246008 C19.11179478 988.78780008 15.5369274 988.78711233 11.96194458 988.79706955 C7.97452678 988.80740116 3.98740048 988.79305261 0 988.77636719 C-1.17426544 988.78243988 -2.34853088 988.78851257 -3.55838013 988.79476929 C-10.91028433 988.73788225 -16.11778027 987.68671533 -22.71484375 984.38818359 C-26.67484375 984.05818359 -30.63484375 983.72818359 -34.71484375 983.38818359 C-34.71484375 665.26818359 -34.71484375 347.14818359 -34.71484375 19.38818359 C-32.73484375 19.05818359 -30.75484375 18.72818359 -28.71484375 18.38818359 C-28.55628906 17.72431641 -28.39773438 17.06044922 -28.234375 16.37646484 C-26.75673844 10.7843044 -25.55313109 6.93626098 -20.71484375 3.38818359 C-13.76761983 0.0910865 -7.6146867 -0.03937922 0 0 Z " fill="#DDA367" transform="translate(793.71484375,103.61181640625)"/>
<path d="M0 0 C45.54 0 91.08 0 138 0 C138 141.24 138 282.48 138 428 C92.46 428 46.92 428 0 428 C0 286.76 0 145.52 0 0 Z " fill="#F1BF7E" transform="translate(759,123)"/>
<path d="M0 0 C1.63166611 -0.00856522 1.63166611 -0.00856522 3.29629517 -0.01730347 C4.48494171 -0.01842133 5.67358826 -0.01953918 6.89825439 -0.02069092 C8.15395233 -0.02565582 9.40965027 -0.03062073 10.70339966 -0.03573608 C14.14573841 -0.04883641 17.58805767 -0.05530057 21.03041744 -0.05974674 C23.1833389 -0.06268168 25.33625509 -0.06678731 27.48917389 -0.07125092 C34.23171995 -0.08492046 40.97425389 -0.09458941 47.71681285 -0.09845281 C55.48775899 -0.10293046 63.25852897 -0.12046693 71.02942157 -0.1494534 C77.04401848 -0.17110612 83.05856596 -0.18115902 89.07320142 -0.18249393 C92.66169086 -0.18353951 96.25001459 -0.18939443 99.83846283 -0.20731354 C103.84548033 -0.2269339 107.85213158 -0.22249101 111.85919189 -0.21600342 C113.03974152 -0.2252182 114.22029114 -0.23443298 115.43661499 -0.243927 C123.17707816 -0.20470444 129.04717863 0.50753061 135.45001221 5.20294189 C141.75692367 13.672223 141.0640447 24.12035396 141.01503563 34.21072388 C141.01816827 35.842923 141.02261441 37.47512004 141.02824873 39.10731244 C141.03992308 43.59267913 141.03294519 48.0778519 141.02291487 52.5632154 C141.01530364 57.44290093 141.02508497 62.32255676 141.03264487 67.20223808 C141.04348305 75.75461223 141.04314931 84.30692957 141.03550339 92.85930634 C141.02416456 105.57690278 141.02995268 118.29445123 141.03912831 131.01204735 C141.05493486 153.7245186 141.05355264 176.43696454 141.04489157 199.1494382 C141.03734927 219.02532805 141.03537276 238.90120862 141.0389595 258.77709961 C141.03918866 260.0947631 141.03941781 261.41242659 141.03965391 262.77001928 C141.04058531 268.11864757 141.04154131 273.46727585 141.0425332 278.81590413 C141.04528423 293.7675383 141.04699603 308.71917249 141.04789162 323.67080688 C141.04795302 324.69210026 141.04795302 324.69210026 141.04801567 325.73402583 C141.0492435 347.42928319 141.04586283 369.12453735 141.03934288 390.8197937 C141.03913213 391.52346078 141.03892139 392.22712785 141.03870425 392.95211817 C141.03526941 404.37921917 141.03161102 415.8063201 141.02793373 427.23342102 C141.01336472 472.55465042 141.01404093 517.87585324 141.02862549 563.19708252 C141.03228906 574.61841835 141.03592221 586.03975418 141.03934288 597.46109009 C141.03955422 598.16434312 141.03976557 598.86759615 141.03998332 599.59215988 C141.04645185 621.26479931 141.0491947 642.93743653 141.04789162 664.6100769 C141.04785086 665.2904392 141.04781011 665.97080149 141.04776812 666.67178082 C141.04683069 681.60680324 141.04492977 696.54182542 141.04216011 711.47684761 C141.04104978 717.48582646 141.04000453 723.49480532 141.0389595 729.50378418 C141.03872227 730.8184042 141.03848504 732.13302423 141.03824062 733.48748122 C141.03482609 753.35241652 141.03882296 773.21734152 141.04639816 793.08227539 C141.05496722 815.66626169 141.05285007 838.2502187 141.03655593 860.83420134 C141.02773444 873.47857156 141.02719024 886.12287838 141.03849445 898.76724698 C141.04520934 907.2080433 141.04105714 915.64878866 141.02798015 924.08957741 C141.0208283 928.90222981 141.01843589 933.71475603 141.0291981 938.52740455 C141.03888987 942.90593717 141.03477071 947.28423172 141.01965611 951.662747 C141.01663566 953.2364929 141.0186303 954.81025853 141.02627393 956.38398877 C141.11241243 975.47414731 141.11241243 975.47414731 135.45001221 983.07794189 C128.02192989 988.52520226 120.82139753 988.57464511 111.92266846 988.52862549 C110.66638641 988.53388245 109.41010437 988.5391394 108.11575317 988.54455566 C104.68998622 988.55545468 101.26476684 988.55295994 97.83903122 988.54341841 C94.24198459 988.53578545 90.64496022 988.54287747 87.0479126 988.5475769 C81.00905187 988.55302393 74.97030147 988.54587062 68.93145752 988.53155518 C61.96495121 988.51523062 54.99870837 988.52051988 48.03220844 988.53703439 C42.03449669 988.55067941 36.03686392 988.55255423 30.03914165 988.54471838 C26.46415073 988.54005838 22.88928336 988.53937063 19.31430054 988.54932785 C15.32688274 988.55965946 11.33975644 988.54531091 7.35235596 988.52862549 C6.17809052 988.53469818 5.00382507 988.54077087 3.79397583 988.54702759 C-3.2028141 988.49288833 -10.11736216 988.38556752 -15.36248779 983.14044189 C26.21751221 983.14044189 67.79751221 983.14044189 110.63751221 983.14044189 C110.63751221 665.02044189 110.63751221 346.90044189 110.63751221 19.14044189 C67.07751221 19.14044189 23.51751221 19.14044189 -21.36248779 19.14044189 C-18.96248779 8.34044189 -18.96248779 8.34044189 -15.36248779 4.14044189 C-10.23225653 1.04092717 -5.9233596 0.01865365 0 0 Z " fill="#AB6544" transform="translate(786.3624877929688,103.85955810546875)"/>
<path d="M0 0 C5.98628446 0.27148682 11.4141581 0.83105282 16 5 C20.24364485 11.16553872 21.12492783 17.34457524 21.12534916 24.719491 C21.12675148 25.38635509 21.1281538 26.05321918 21.12959861 26.74029127 C21.13308865 28.98322047 21.12943649 31.22608117 21.12584114 33.4690094 C21.12688399 35.09689153 21.12836502 36.72477343 21.13024551 38.35265481 C21.13415644 42.84926022 21.13180075 47.34584428 21.12846755 51.84244935 C21.12593992 56.72560545 21.12918716 61.60875817 21.13171089 66.4919138 C21.13533053 75.05798731 21.13520813 83.62405452 21.13266373 92.19012833 C21.12889041 104.92791767 21.1308102 117.66570168 21.13387203 130.40349099 C21.1391458 153.14955876 21.13867819 175.89562373 21.13579312 198.64169177 C21.13328069 218.54678285 21.1326194 238.45187291 21.13381577 258.35696411 C21.13389215 259.67569692 21.13396854 260.99442974 21.13404724 262.35312415 C21.13435769 267.70586521 21.13467636 273.05860627 21.135007 278.41134733 C21.13592408 293.37520913 21.13649463 308.33907092 21.13679314 323.30293274 C21.13680678 323.98439639 21.13682043 324.66586005 21.13683449 325.36797412 C21.13724387 347.08790148 21.13611634 368.80782849 21.13394356 390.52775574 C21.13387331 391.23239847 21.13380306 391.9370412 21.13373068 392.66303674 C21.13258568 404.10654922 21.13136624 415.55006168 21.13014051 426.99357414 C21.12528404 472.38211031 21.12550944 517.77064353 21.13037109 563.15917969 C21.13159225 574.59686788 21.13280328 586.03455607 21.13394356 597.47224426 C21.13404923 598.52858184 21.13404923 598.52858184 21.13415704 599.60625956 C21.13631267 621.30319551 21.1372276 643.00013121 21.13679314 664.69706726 C21.13677955 665.37803282 21.13676597 666.05899839 21.13675197 666.76059927 C21.13643952 681.70773366 21.13580592 696.65486802 21.13488263 711.60200238 C21.13451251 717.61568021 21.1341641 723.62935805 21.13381577 729.64303589 C21.13373669 730.95872553 21.13365761 732.27441517 21.13357614 733.62997419 C21.13243715 753.52586905 21.13377176 773.42176277 21.13629532 793.31765747 C21.13914945 815.93300631 21.13845071 838.54835191 21.13301457 861.16370034 C21.13007033 873.83129489 21.12989806 886.4988824 21.13366075 899.16647677 C21.13589456 907.6165446 21.13452317 916.06660677 21.13015598 924.51667375 C21.12776575 929.3387822 21.12698748 934.16087663 21.13056196 938.98298466 C21.13377673 943.36426539 21.13244245 947.74551958 21.1273813 952.12679835 C21.12636888 953.70718645 21.12705393 955.28757672 21.12958724 956.86796312 C21.13277222 959.00551097 21.1298441 961.14296553 21.12534916 963.280509 C21.1252814 964.46655883 21.12521365 965.65260866 21.12514383 966.8745994 C21.01179023 969.70554533 20.65097543 972.24879309 20 975 C18.35 975 16.7 975 15 975 C15.48724402 974.31343352 15.97448804 973.62686704 16.47649703 972.91949552 C18.29488687 969.43490698 18.37537513 967.20621727 18.37604749 963.28807169 C18.38025444 962.62202626 18.38446139 961.95598083 18.38879583 961.26975221 C18.39926668 959.0294266 18.38831039 956.78971811 18.37752342 954.54940128 C18.38065197 952.92352457 18.38509507 951.29764995 18.39073652 949.67178002 C18.40246942 945.18068535 18.3954024 940.68978292 18.38540266 936.19869122 C18.3778197 931.32154649 18.38756149 926.44443215 18.39513266 921.56729168 C18.40599161 913.01174487 18.40562442 904.4562548 18.39799118 895.90070534 C18.38667119 883.17852499 18.39243064 870.45639275 18.4016161 857.73421276 C18.41743753 835.01574695 18.4160345 812.29730641 18.40737936 789.57883819 C18.39984192 769.69727488 18.39785828 749.81572086 18.4014473 729.93415642 C18.40179103 727.95835441 18.40179103 727.95835441 18.40214171 725.9426372 C18.40307568 720.59609432 18.40402908 715.24955145 18.405021 709.90300858 C18.40777226 694.95639849 18.40948389 680.00978837 18.41037941 665.06317806 C18.41042035 664.38249782 18.41046128 663.70181759 18.41050346 663.00051068 C18.41173161 641.30540833 18.408349 619.6103092 18.40183067 597.91520786 C18.40161993 597.21136877 18.40140918 596.50752967 18.40119205 595.78236212 C18.39775706 584.35193013 18.39409874 572.92149821 18.39042152 561.49106629 C18.37585294 516.15703986 18.3765276 470.82303999 18.39111328 425.48901367 C18.39477676 414.06558771 18.39840987 402.64216174 18.40183067 391.21873569 C18.40204202 390.51538382 18.40225336 389.81203195 18.40247111 389.08736639 C18.40893836 367.41611553 18.41168273 345.74486687 18.41037941 324.07361507 C18.41033866 323.39341898 18.4102979 322.71322288 18.41025592 322.01241479 C18.40931853 307.08189341 18.40741772 292.15137227 18.4046479 277.22085112 C18.40353754 271.21378721 18.40249229 265.20672328 18.4014473 259.19965935 C18.40121006 257.88542028 18.40097283 256.57118121 18.40072841 255.21711672 C18.39731187 235.34569947 18.40131451 215.47429249 18.40888596 195.60287666 C18.41744978 173.01389707 18.41534913 150.42494676 18.39904372 127.83597083 C18.39021321 115.18411979 18.38969094 102.53233212 18.40098225 89.88048269 C18.4076864 81.43962812 18.40356455 72.99882458 18.39046794 64.55797761 C18.38330099 59.74192294 18.38095464 54.92599458 18.39168589 50.1099437 C18.40133982 45.73294436 18.39731362 41.35618397 18.38214391 36.97920223 C18.37911003 35.40151415 18.38115313 33.82380652 18.38876172 32.24613387 C18.39833855 30.10955676 18.38951418 27.97381563 18.37604749 25.83727747 C18.37584421 24.65263146 18.37564094 23.46798546 18.3754315 22.24744109 C17.95483101 18.60929324 16.81209662 16.15742382 15 13 C15.66 13 16.32 13 17 13 C16.44449305 9.40094092 15.25112752 8.00090201 12.4375 5.75 C11.79683594 5.22921875 11.15617188 4.7084375 10.49609375 4.171875 C9.75552734 3.59179688 9.75552734 3.59179688 9 3 C8.67 3.66 8.34 4.32 8 5 C7.01 4.34 6.02 3.68 5 3 C3.34450469 2.61500109 1.6777567 2.27206865 0 2 C0 1.34 0 0.68 0 0 Z " fill="#BF714C" transform="translate(906,104)"/>
<path d="M0 0 C5.98628446 0.27148682 11.4141581 0.83105282 16 5 C20.35575668 11.3284246 21.14828567 17.43743069 21 25 C20.67 25 20.34 25 20 25 C20 23.02 20 21.04 20 19 C19.34 19 18.68 19 18 19 C17.01 17.02 16.02 15.04 15 13 C15.66 13 16.32 13 17 13 C16.44449305 9.40094092 15.25112752 8.00090201 12.4375 5.75 C11.79683594 5.22921875 11.15617188 4.7084375 10.49609375 4.171875 C9.75552734 3.59179688 9.75552734 3.59179688 9 3 C8.67 3.66 8.34 4.32 8 5 C7.01 4.34 6.02 3.68 5 3 C3.34450469 2.61500109 1.6777567 2.27206865 0 2 C0 1.34 0 0.68 0 0 Z " fill="#CD7950" transform="translate(906,104)"/>
<path d="M0 0 C0 0.66 0 1.32 0 2 C-0.9075 2.12375 -1.815 2.2475 -2.75 2.375 C-9.68652759 3.70894761 -14.18925271 8.01107688 -19 13 C-18.71161525 9.63551128 -18.04879887 8.06210766 -15.9375 5.375 C-11.22251123 1.56288142 -6.15757894 -0.57727303 0 0 Z " fill="#C8764E" transform="translate(786,104)"/>
<path d="M0 0 C0.33 0.99 0.66 1.98 1 3 C-1.52150725 7.84129392 -3.86781674 10.16016072 -9 12 C-11.993645 12.49975743 -14.97211216 12.80486945 -18 13 C-17.67 12.01 -17.34 11.02 -17 10 C-16.33613281 9.99742188 -15.67226563 9.99484375 -14.98828125 9.9921875 C-9.81739556 9.88044708 -9.81739556 9.88044708 -5.29296875 7.703125 C-3.79139649 5.93306828 -3.79139649 5.93306828 -2 3 C-1.34 2.01 -0.68 1.02 0 0 Z " fill="#C9774F" transform="translate(924,1079)"/>
<path d="M0 0 C0.66 0 1.32 0 2 0 C2.08159574 4.16138263 1.98248524 7.9472484 1 12 C-0.65 12 -2.3 12 -4 12 C-3.525625 11.319375 -3.05125 10.63875 -2.5625 9.9375 C-0.7774364 6.58158044 -0.36846914 3.75838519 0 0 Z " fill="#CF7A51" transform="translate(925,1067)"/>
<path d="M0 0 C4.77592824 -0.09184477 8.69893899 -0.1505305 13 2 C13 2.66 13 3.32 13 4 C11.58249437 3.88490339 10.16598831 3.75746342 8.75 3.625 C7.96109375 3.55539062 7.1721875 3.48578125 6.359375 3.4140625 C3.914123 2.98492887 2.15163097 2.21399362 0 1 C0 0.67 0 0.34 0 0 Z " fill="#CA774F" transform="translate(773,1088)"/>
<path d="M0 0 C4.62 0 9.24 0 14 0 C13.67 0.99 13.34 1.98 13 3 C7.76276792 3.14547867 4.71795491 2.35897745 0 0 Z " fill="#B86D48" transform="translate(771,1087)"/>
<path d="M0 0 C2.97 0.33 5.94 0.66 9 1 C8.67 2.32 8.34 3.64 8 5 C7.01 4.34 6.02 3.68 5 3 C3.34450469 2.61500109 1.6777567 2.27206865 0 2 C0 1.34 0 0.68 0 0 Z " fill="#C4734D" transform="translate(906,104)"/>
</svg>
