<?xml version="1.0" encoding="UTF-8"?>
<svg version="1.1" xmlns="http://www.w3.org/2000/svg" width="500" height="500">
<path d="M0 0 C18.81 0 37.62 0 57 0 C57 27.06 57 54.12 57 82 C110.46 82 163.92 82 219 82 C219 157.24 219 232.48 219 310 C216.03 310 213.06 310 210 310 C210 361.48 210 412.96 210 466 C90.54 466 -28.92 466 -152 466 C-152 414.52 -152 363.04 -152 310 C-155.63 310 -159.26 310 -163 310 C-163 234.76 -163 159.52 -163 82 C-109.21 82 -55.42 82 0 82 C0 54.94 0 27.88 0 0 Z " fill="#F0BE7D" transform="translate(221,18)"/>
<path d="M0 0 C126.06 0 252.12 0 382 0 C382 15.18 382 30.36 382 46 C379.03 46 376.06 46 373 46 C373 97.48 373 148.96 373 202 C253.54 202 134.08 202 11 202 C11 150.52 11 99.04 11 46 C7.37 46 3.74 46 0 46 C0 30.82 0 15.64 0 0 Z " fill="#DCA166" transform="translate(58,282)"/>
<path d="M0 0 C126.06 0 252.12 0 382 0 C382 15.18 382 30.36 382 46 C379.03 46 376.06 46 373 46 C373 48.31 373 50.62 373 53 C359.47 53 345.94 53 332 53 C334 49 334 49 336 47 C329.07 46.67 322.14 46.34 315 46 C315.13921875 47.53269531 315.2784375 49.06539063 315.421875 50.64453125 C315.53452228 52.70034414 315.64371278 54.75634848 315.75 56.8125 C315.85054688 57.81732422 315.95109375 58.82214844 316.0546875 59.85742188 C316.24645151 64.82730572 315.95927785 67.83210693 312.73901367 71.75268555 C310.1331485 74.1149557 307.47877062 76.34380987 304.73834229 78.5440979 C301.77456051 81.02633408 299.0989633 83.78472927 296.39453125 86.54296875 C295.29902715 87.64668196 294.203324 88.75019762 293.10742188 89.85351562 C292.00882129 90.96455382 290.9105171 92.07588516 289.8125 93.1875 C287.59270004 95.43384276 285.36960295 97.67684927 283.14453125 99.91796875 C282.64049271 100.43030563 282.13645416 100.94264252 281.61714172 101.47050476 C280.43019943 102.6659388 279.21770091 103.83591278 278 105 C277.67 105 277.34 105 277 105 C277 85.53 277 66.06 277 46 C266.44 46 255.88 46 245 46 C245.19376221 48.56289795 245.38752441 51.1257959 245.5871582 53.76635742 C246.42725702 65.56288955 246.9588729 77.36684483 247.3125 89.1875 C247.34402538 90.23665714 247.37555077 91.28581429 247.40803146 92.36676407 C248.61500821 137.83393327 248.61500821 137.83393327 234.34757996 154.06819153 C226.66561746 161.8456908 217.73039677 168.94430639 208 174 C207.67 174 207.34 174 207 174 C207 131.76 207 89.52 207 46 C195.45 46 183.9 46 172 46 C172 87.58 172 129.16 172 172 C169.69 170.02 167.38 168.04 165 166 C163.17787084 164.59165324 161.35567971 163.18338065 159.53044701 161.77905846 C146.85311353 151.82179434 133.61562677 140.92585272 131.46923828 124.12158203 C130.47307425 113.29882309 131.1196174 102.43208132 131.87139893 91.61437988 C132.19448342 86.45472774 132.33130653 81.28999402 132.48632812 76.12304688 C132.81430287 66.06706272 133.35666965 56.04074245 134 46 C123.11 46 112.22 46 101 46 C101 63.82 101 81.64 101 100 C93.12299105 93.24827805 93.12299105 93.24827805 90.46728516 90.59667969 C89.87041901 90.0029657 89.27355286 89.40925171 88.65859985 88.79754639 C87.73317886 87.86908905 87.73317886 87.86908905 86.7890625 86.921875 C86.13545746 86.26922668 85.48185242 85.61657837 84.80844116 84.94415283 C83.44089025 83.57727739 82.07458111 82.20915851 80.70947266 80.83984375 C78.61344091 78.73841112 76.51206642 76.64242612 74.41015625 74.546875 C73.07780386 73.21386257 71.7457613 71.88054037 70.4140625 70.546875 C69.78496979 69.91980652 69.15587708 69.29273804 68.50772095 68.64666748 C63.03010509 63.13917667 63.03010509 63.13917667 62.90234375 58.3046875 C62.90899507 56.82809348 62.92092426 55.35151596 62.9375 53.875 C62.94201172 53.12089844 62.94652344 52.36679687 62.95117188 51.58984375 C62.96296501 49.72652873 62.98090058 47.86325445 63 46 C58.38 46.33 53.76 46.66 49 47 C50.32 48.32 51.64 49.64 53 51 C53 51.99 53 52.98 53 54 C39.14 54 25.28 54 11 54 C11 51.36 11 48.72 11 46 C7.37 46 3.74 46 0 46 C0 30.82 0 15.64 0 0 Z " fill="#C28457" transform="translate(58,282)"/>
<path d="M0 0 C18.15 0 36.3 0 55 0 C55 46.53 55 93.06 55 141 C108.79 141 162.58 141 218 141 C218 141.33 218 141.66 218 142 C91.94 142 -34.12 142 -164 142 C-164 141.67 -164 141.34 -164 141 C-109.88 141 -55.76 141 0 141 C0 94.47 0 47.94 0 0 Z " fill="#DDA66D" transform="translate(222,140)"/>
<path d="M0 0 C11.55 0 23.1 0 35 0 C35.36248735 16.54336501 35.65663896 33.08329412 35.82899475 49.62953949 C35.91118317 57.3138893 36.02301962 64.99558076 36.20703125 72.67822266 C36.36751836 79.38194539 36.46996009 86.08374236 36.50541592 92.78933287 C36.52611876 96.33466582 36.57400719 99.8744951 36.69168091 103.41804504 C37.46982421 127.76622324 37.46982421 127.76622324 29.26390076 136.73816681 C20.56081222 145 20.56081222 145 17 145 C15.625 143.6015625 15.625 143.6015625 14 141.625 C11.94141778 139.12923156 9.91558265 136.92718402 7.46178627 134.81060982 C2.64258121 130.61323587 -0.57711984 127.51173881 -1.20254517 120.9760437 C-1.23120364 118.71961396 -1.20567118 116.46205574 -1.13525391 114.20654297 C-1.13671417 112.96637924 -1.13817444 111.72621552 -1.13967896 110.44847107 C-1.13394036 107.07687529 -1.08414387 103.71155219 -1.01393938 100.34106588 C-0.95103229 96.80855248 -0.94552174 93.27593756 -0.9336853 89.74295044 C-0.90271701 83.06657978 -0.82081683 76.39186463 -0.72019041 69.71622002 C-0.60805681 62.11056368 -0.55334507 54.50482438 -0.50323606 46.89854598 C-0.39896661 31.26457791 -0.21573133 15.63288773 0 0 Z " fill="#E48A76" transform="translate(230,328)"/>
<path d="M0 0 C12.54 0 25.08 0 38 0 C39.00782905 14.41528464 39.88071838 28.75438193 40.3125 43.1875 C40.34402538 44.23665714 40.37555077 45.28581429 40.40803146 46.36676407 C41.61500821 91.83393327 41.61500821 91.83393327 27.34757996 108.06819153 C19.66561746 115.8456908 10.73039677 122.94430639 1 128 C0.67 128 0.34 128 0 128 C0 85.76 0 43.52 0 0 Z " fill="#E26E55" transform="translate(265,328)"/>
<path d="M0 0 C12.54 0 25.08 0 38 0 C38 41.58 38 83.16 38 126 C35.69 124.02 33.38 122.04 31 120 C29.17787084 118.59165324 27.35567971 117.18338065 25.53044701 115.77905846 C12.85311353 105.82179434 -0.38437323 94.92585272 -2.53076172 78.12158203 C-3.52692575 67.29882309 -2.8803826 56.43208132 -2.12860107 45.61437988 C-1.74830241 39.54101871 -1.6121159 33.45735809 -1.43254852 27.3753891 C-1.13635916 18.22975996 -0.54252499 9.14903249 0 0 Z " fill="#E26E56" transform="translate(192,328)"/>
<path d="M0 0 C10.56 0 21.12 0 32 0 C35.85831428 58.76939577 35.85831428 58.76939577 25.73286438 70.85035706 C24.24107606 72.41574847 22.70324279 73.84245088 21.0625 75.25 C20.55081268 75.69376984 20.03912537 76.13753967 19.51193237 76.59475708 C12.6006293 82.29935296 9.35448946 83 0 83 C0 55.61 0 28.22 0 0 Z " fill="#E48A76" transform="translate(303,328)"/>
<path d="M0 0 C10.89 0 21.78 0 33 0 C33 27.39 33 54.78 33 83 C23.56237398 83 16.40460545 75.07063626 9.77050781 68.88183594 C-0.54427589 58.30707029 -1.91012462 47.77575351 -1.95776367 33.35961914 C-1.734131 22.18901894 -0.99180156 11.13021748 0 0 Z " fill="#E48A76" transform="translate(159,328)"/>
<path d="M0 0 C11.55 0 23.1 0 35 0 C35 15.84 35 31.68 35 48 C23.45 48 11.9 48 0 48 C0 32.16 0 16.32 0 0 Z " fill="#E48A76" transform="translate(230,328)"/>
<path d="M0 0 C12.54 0 25.08 0 38 0 C38.2475 3.568125 38.495 7.13625 38.75 10.8125 C38.85924805 11.91311768 38.96849609 13.01373535 39.08105469 14.14770508 C39.24153624 19.00140938 38.87909035 21.92973289 35.73901367 25.75268555 C33.1331485 28.1149557 30.47877062 30.34380987 27.73834229 32.5440979 C24.77456051 35.02633408 22.0989633 37.78472927 19.39453125 40.54296875 C18.29902715 41.64668196 17.203324 42.75019762 16.10742188 43.85351562 C15.00882129 44.96455382 13.9105171 46.07588516 12.8125 47.1875 C10.59270004 49.43384276 8.36960295 51.67684927 6.14453125 53.91796875 C5.64049271 54.43030563 5.13645416 54.94264252 4.61714172 55.47050476 C3.43019943 56.6659388 2.21770091 57.83591278 1 59 C0.67 59 0.34 59 0 59 C0 39.53 0 20.06 0 0 Z " fill="#E26E56" transform="translate(335,328)"/>
<path d="M0 0 C12.54 0 25.08 0 38 0 C38 17.82 38 35.64 38 54 C30.12299105 47.24827805 30.12299105 47.24827805 27.46728516 44.59667969 C26.87041901 44.0029657 26.27355286 43.40925171 25.65859985 42.79754639 C25.04165253 42.17857483 24.4247052 41.55960327 23.7890625 40.921875 C23.13545746 40.26922668 22.48185242 39.61657837 21.80844116 38.94415283 C20.44089025 37.57727739 19.07458111 36.20915851 17.70947266 34.83984375 C15.61344091 32.73841112 13.51206642 30.64242612 11.41015625 28.546875 C10.07780386 27.21386257 8.7457613 25.88054037 7.4140625 24.546875 C6.47042343 23.60627228 6.47042343 23.60627228 5.50772095 22.64666748 C-2.51844948 14.57672227 0 15.16485858 0 0 Z " fill="#E26E56" transform="translate(121,328)"/>
<path d="M0 0 C11.55 0 23.1 0 35 0 C35 11.55 35 23.1 35 35 C23.45 35 11.9 35 0 35 C0 23.45 0 11.9 0 0 Z " fill="#E8D7CF" transform="translate(230,376)"/>
<path d="M0 0 C10.56 0 21.12 0 32 0 C32 12 32 12 30.03149414 15.47363281 C29.12520264 16.37436523 28.21891113 17.27509766 27.28515625 18.203125 C26.79599228 18.69665466 26.30682831 19.19018433 25.80284119 19.69866943 C24.77217298 20.7244025 23.72679958 21.73555742 22.66772461 22.73193359 C21.05843842 24.25384105 19.51324392 25.8246984 17.96679688 27.41015625 C11.49990162 33.75793035 10.0206429 35 0 35 C0 23.45 0 11.9 0 0 Z " fill="#E8D6CE" transform="translate(303,376)"/>
<path d="M0 0 C10.89 0 21.78 0 33 0 C33 11.55 33 23.1 33 35 C27.62882882 35 26.84422932 34.44433268 23.16447449 30.9105072 C22.57781509 30.32000076 21.9911557 29.72949432 21.38671875 29.12109375 C20.77230423 28.51620621 20.15788971 27.91131866 19.52485657 27.2881012 C18.23022322 26.0056249 16.94203612 24.71661308 15.65991211 23.42163086 C13.69757913 21.44763901 11.70547881 19.50771964 9.70898438 17.56835938 C8.45378775 16.31704859 7.20046736 15.06385235 5.94921875 13.80859375 C5.3524382 13.23225693 4.75565765 12.6559201 4.14079285 12.06211853 C3.59635025 11.50206619 3.05190765 10.94201385 2.4909668 10.36499023 C2.00863083 9.88311752 1.52629486 9.40124481 1.02934265 8.9047699 C0 7 0 7 0 0 Z " fill="#E8D7CF" transform="translate(159,376)"/>
<path d="M0 0 C11.55 0 23.1 0 35 0 C35 8 35 8 33.56298828 10.37695312 C32.90540527 11.00537109 32.24782227 11.63378906 31.5703125 12.28125 C30.50103516 13.32539063 30.50103516 13.32539063 29.41015625 14.390625 C28.65605469 15.08671875 27.90195312 15.7828125 27.125 16.5 C26.37863281 17.22703125 25.63226563 17.9540625 24.86328125 18.703125 C19.33740602 24 19.33740602 24 17 24 C15.625 22.6015625 15.625 22.6015625 14 20.625 C10.2997862 16.21290574 6.19897715 12.3627065 1.94140625 8.4921875 C0 6 0 6 0 0 Z " fill="#E8D7CE" transform="translate(230,449)"/>
<path d="M0 0 C11.55 0 23.1 0 35 0 C35 3.3 35 6.6 35 10 C23.45 10 11.9 10 0 10 C0 6.7 0 3.4 0 0 Z " fill="#D2B3A4" transform="translate(230,328)"/>
<path d="M0 0 C10.89 0 21.78 0 33 0 C33 3.3 33 6.6 33 10 C22.11 10 11.22 10 0 10 C0 6.7 0 3.4 0 0 Z " fill="#D2B3A4" transform="translate(159,328)"/>
<path d="M0 0 C10.56 0 21.12 0 32 0 C32 3.3 32 6.6 32 10 C21.44 10 10.88 10 0 10 C0 6.7 0 3.4 0 0 Z " fill="#D8BEB1" transform="translate(303,328)"/>
<path d="M0 0 C12.54 0 25.08 0 38 0 C38 2.64 38 5.28 38 8 C25.46 8 12.92 8 0 8 C0 5.36 0 2.72 0 0 Z " fill="#CF5D45" transform="translate(335,328)"/>
<path d="M0 0 C12.54 0 25.08 0 38 0 C38 2.64 38 5.28 38 8 C25.46 8 12.92 8 0 8 C0 5.36 0 2.72 0 0 Z " fill="#CF5D45" transform="translate(265,328)"/>
<path d="M0 0 C12.54 0 25.08 0 38 0 C38 2.64 38 5.28 38 8 C25.46 8 12.92 8 0 8 C0 5.36 0 2.72 0 0 Z " fill="#CF5D45" transform="translate(192,328)"/>
<path d="M0 0 C12.54 0 25.08 0 38 0 C38 2.64 38 5.28 38 8 C25.46 8 12.92 8 0 8 C0 5.36 0 2.72 0 0 Z " fill="#CF5D45" transform="translate(121,328)"/>
<path d="M0 0 C7.26 0 14.52 0 22 0 C13.46586734 9.95648811 13.46586734 9.95648811 9.86328125 10.29296875 C8.69152344 10.25816406 7.51976562 10.22335937 6.3125 10.1875 C4.54326172 10.14689453 4.54326172 10.14689453 2.73828125 10.10546875 C1.83464844 10.07066406 0.93101562 10.03585937 0 10 C0 6.7 0 3.4 0 0 Z " fill="#D1B2A2" transform="translate(373,328)"/>
<path d="M0 0 C11.55 0 23.1 0 35 0 C35 1.32 35 2.64 35 4 C23.45 4 11.9 4 0 4 C0 2.68 0 1.36 0 0 Z " fill="#E3CEC4" transform="translate(230,334)"/>
<path d="M0 0 C10.89 0 21.78 0 33 0 C33 1.32 33 2.64 33 4 C22.11 4 11.22 4 0 4 C0 2.68 0 1.36 0 0 Z " fill="#E2C9BF" transform="translate(159,334)"/>
<path d="M0 0 C4.95 0 9.9 0 15 0 C15 3.3 15 6.6 15 10 C12.3125 10.3125 12.3125 10.3125 9 10 C5.42540766 7.02117305 2.92832395 3.66040494 0 0 Z " fill="#D1B2A3" transform="translate(106,328)"/>
<path d="M0 0 C3.63 0 7.26 0 11 0 C7.56530675 4.15358254 4.36729534 7.78875342 0 11 C0 7.37 0 3.74 0 0 Z " fill="#E38B74" transform="translate(373,339)"/>
<path d="M0 0 C4.95 0 9.9 0 15 0 C14.34 1.32 13.68 2.64 13 4 C8.71 4 4.42 4 0 4 C0 2.68 0 1.36 0 0 Z " fill="#E2CCC2" transform="translate(373,334)"/>
<path d="M0 0 C2.64 0 5.28 0 8 0 C7.04578192 1.14926266 6.08647955 2.29430541 5.125 3.4375 C4.59132813 4.07558594 4.05765625 4.71367187 3.5078125 5.37109375 C2 7 2 7 0 8 C0 5.36 0 2.72 0 0 Z " fill="#E38F78" transform="translate(303,411)"/>
<path d="M0 0 C2.97 0 5.94 0 9 0 C9 1.32 9 2.64 9 4 C3.48 4.368 3.48 4.368 1.125 2.5625 C0 1 0 1 0 0 Z " fill="#E1C4B9" transform="translate(112,334)"/>
</svg>
