<?xml version="1.0" encoding="UTF-8"?>
<svg version="1.1" xmlns="http://www.w3.org/2000/svg" width="512" height="512">
<path d="M0 0 C4.17076781 1.61256416 6.85041648 4.65783689 9.8125 7.875 C10.37654541 8.48649902 10.94059082 9.09799805 11.52172852 9.72802734 C18.98220864 17.99247815 25.49625425 26.97768848 32 36 C32.59989746 36.82838379 33.19979492 37.65676758 33.81787109 38.51025391 C42.81461096 50.98183402 51.08268805 63.82054279 59 77 C59.52948242 77.87881836 60.05896484 78.75763672 60.60449219 79.66308594 C68.81417133 93.32259464 76.68819363 107.16573068 84.40185547 121.11083984 C85.51001232 123.1141897 86.62403114 125.11430385 87.74267578 127.11181641 C88.29294434 128.1022998 88.84321289 129.0927832 89.41015625 130.11328125 C89.90781494 131.00442627 90.40547363 131.89557129 90.91821289 132.8137207 C92 135 92 135 92 137 C92.99443115 137.09941895 93.9888623 137.19883789 95.01342773 137.30126953 C106.51039813 138.51519033 117.74787452 140.52655687 129.0625 142.875 C129.99277008 143.06641571 130.92304016 143.25783142 131.88150024 143.45504761 C163.53094068 149.99513242 195.52917701 157.09861425 226 168 C226.80743652 168.28601074 227.61487305 168.57202148 228.44677734 168.86669922 C235.13751815 171.25359936 241.67974847 173.72958153 248 177 C246.33514112 181.72634939 243.85890834 185.81341535 241.25 190.0625 C240.76901855 190.84689453 240.28803711 191.63128906 239.79248047 192.43945312 C233.91733443 201.89800832 227.47980048 210.95015964 221 220 C219.86842789 221.59110196 218.7369163 223.18224696 217.60546875 224.7734375 C210.98258899 234.0503461 204.15454813 243.12679281 197 252 C196.24203125 252.94101562 195.4840625 253.88203125 194.703125 254.8515625 C190.2382011 260.34563553 185.68300908 265.76013023 181.09472656 271.15112305 C178.09296224 274.68425231 175.15843532 278.26418744 172.25 281.875 C169.23487297 285.58221134 166.11094325 289.00755492 162.6796875 292.328125 C160.31481507 294.68199802 158.14575317 297.18796507 155.96875 299.71484375 C154 302 154 302 152.26124573 303.57641602 C149.41594719 306.34682572 147.23708215 308.54397517 146.58432007 312.5528717 C146.68934966 315.50926822 147.01402493 318.35673747 147.43359375 321.28515625 C147.6839069 323.52340213 147.93237754 325.76185469 148.17919922 328.00048828 C148.38835968 329.73120575 148.38835968 329.73120575 148.60174561 331.49688721 C149.24691134 337.17187381 149.63422331 342.86203686 150.03515625 348.55859375 C150.20566493 350.86528736 150.3768933 353.17192788 150.54882812 355.47851562 C150.63334229 356.62618408 150.71785645 357.77385254 150.80493164 358.95629883 C150.97652194 361.27545153 151.15002195 363.59446372 151.32543945 365.91333008 C153.05007518 388.72504676 154.18907604 411.51070787 154.13037109 434.39208984 C154.12488791 436.92681562 154.1304411 439.46137237 154.13671875 441.99609375 C154.13987926 450.71340266 153.9525528 459.32287325 153 468 C145.32292461 465.86342898 137.88569525 463.17239744 130.43490601 460.36260986 C118.58914702 455.89696635 106.71286657 451.51904127 94.8046875 447.22265625 C70.5909654 438.48274303 46.4463479 429.64682612 22.55078125 420.06640625 C21.56578896 419.67298035 21.56578896 419.67298035 20.56089783 419.27160645 C17.52658994 418.05157746 14.52488121 416.78695097 11.54052734 415.44873047 C10.48945801 414.97967285 9.43838867 414.51061523 8.35546875 414.02734375 C7.01005005 413.40267212 7.01005005 413.40267212 5.63745117 412.76538086 C0.86178717 411.37949669 -3.2211078 412.89752349 -7.640625 414.828125 C-8.52645264 415.20831787 -9.41228027 415.58851074 -10.32495117 415.98022461 C-11.29021729 416.39925049 -12.2554834 416.81827637 -13.25 417.25 C-39.87328079 428.53402602 -67.07719664 438.24533941 -94.30664062 447.94824219 C-109.27798718 453.28592161 -124.20498528 458.727031 -139.07397461 464.34375 C-140.07941315 464.72168449 -140.07941315 464.72168449 -141.10516357 465.10725403 C-142.87151143 465.77149344 -144.63638281 466.43965549 -146.40112305 467.1081543 C-149 468 -149 468 -151 468 C-152.09963969 457.7881562 -152.20048251 447.63202517 -152.1875 437.375 C-152.18689575 436.48595978 -152.1862915 435.59691956 -152.18566895 434.68093872 C-152.12712085 402.45342291 -149.98084528 370.42198259 -147.15182495 338.33039856 C-146.83399776 334.70967622 -146.52601697 331.08813671 -146.21746826 327.46661377 C-146.0107264 325.12166325 -145.78299686 322.77960304 -145.55126953 320.43701172 C-145.43066999 319.08697154 -145.3106696 317.73687763 -145.19140625 316.38671875 C-145.02620483 314.67875122 -145.02620483 314.67875122 -144.85766602 312.9362793 C-145.06694457 308.61896682 -146.87220451 306.53828791 -149.96875 303.6875 C-150.97421875 302.8521875 -150.97421875 302.8521875 -152 302 C-153.17694507 300.84370309 -154.34389076 299.67712941 -155.5 298.5 C-156.08394531 297.92378906 -156.66789062 297.34757812 -157.26953125 296.75390625 C-160.34008009 293.64176984 -163.15809053 290.32003791 -166 287 C-166.90739364 285.94517618 -167.81495908 284.89050014 -168.72265625 283.8359375 C-171.31204406 280.82490283 -173.89256074 277.80638093 -176.47119141 274.78613281 C-177.89627954 273.12117836 -179.32803478 271.46223918 -180.76171875 269.8046875 C-187.66701665 261.78307711 -194.10124722 253.44354383 -200.48046875 245 C-201.84948237 243.19811061 -203.23183908 241.40824597 -204.625 239.625 C-217.44220405 223.19268712 -229.13597626 205.91088954 -240.1875 188.25 C-240.68193604 187.47470947 -241.17637207 186.69941895 -241.68579102 185.90063477 C-242.13365967 185.17545654 -242.58152832 184.45027832 -243.04296875 183.703125 C-243.64661255 182.73874512 -243.64661255 182.73874512 -244.26245117 181.75488281 C-245 180 -245 180 -244 177 C-242.2512207 175.97607422 -242.2512207 175.97607422 -239.92578125 175.0546875 C-239.04704346 174.70470703 -238.16830566 174.35472656 -237.26293945 173.99414062 C-235.80247192 173.44016602 -235.80247192 173.44016602 -234.3125 172.875 C-233.28793701 172.48248047 -232.26337402 172.08996094 -231.20776367 171.68554688 C-198.44381344 159.41649317 -163.99406503 151.74125022 -129.8125 144.625 C-128.79810852 144.41376495 -127.78371704 144.20252991 -126.73858643 143.9848938 C-123.79142246 143.37370663 -120.84323651 142.76776622 -117.89453125 142.1640625 C-116.49738892 141.87555672 -116.49738892 141.87555672 -115.07202148 141.58122253 C-110.68179332 140.68837013 -106.30214183 139.86953171 -101.86865234 139.22167969 C-101.07665939 139.10158539 -100.28466644 138.98149109 -99.46867371 138.85775757 C-98.0014066 138.64161015 -96.53115587 138.44448336 -95.05830383 138.27041626 C-92.88677615 138.00085882 -92.88677615 138.00085882 -90 137 C-88.56621596 134.70229398 -88.56621596 134.70229398 -88 132 C-81.0563587 117.52962529 -72.89088219 103.66139266 -64.70361328 89.87207031 C-63.10520636 87.17736424 -61.5182345 84.4762536 -59.93359375 81.7734375 C-45.42520975 57.15744194 -29.2661065 33.24665133 -10.6875 11.5 C-10.19588379 10.92443359 -9.70426758 10.34886719 -9.19775391 9.75585938 C-6.26083714 6.35658543 -3.21445051 3.1383342 0 0 Z " fill="#FACD1F" transform="translate(255,22)"/>
<path d="M0 0 C0.66 0 1.32 0 2 0 C0.33514112 4.72634939 -2.14109166 8.81341535 -4.75 13.0625 C-5.47147217 14.2390918 -5.47147217 14.2390918 -6.20751953 15.43945312 C-12.08266557 24.89800832 -18.52019952 33.95015964 -25 43 C-26.13157211 44.59110196 -27.2630837 46.18224696 -28.39453125 47.7734375 C-35.01741101 57.0503461 -41.84545187 66.12679281 -49 75 C-49.75796875 75.94101562 -50.5159375 76.88203125 -51.296875 77.8515625 C-55.7617989 83.34563553 -60.31699092 88.76013023 -64.90527344 94.15112305 C-67.90703776 97.68425231 -70.84156468 101.26418744 -73.75 104.875 C-76.76512703 108.58221134 -79.88905675 112.00755492 -83.3203125 115.328125 C-85.68518493 117.68199802 -87.85424683 120.18796507 -90.03125 122.71484375 C-92 125 -92 125 -93.73875427 126.57641602 C-96.58405281 129.34682572 -98.76291785 131.54397517 -99.41567993 135.5528717 C-99.31065034 138.50926822 -98.98597507 141.35673747 -98.56640625 144.28515625 C-98.3160931 146.52340213 -98.06762246 148.76185469 -97.82080078 151.00048828 C-97.68136047 152.15429993 -97.54192017 153.30811157 -97.39825439 154.49688721 C-96.75308866 160.17187381 -96.36577669 165.86203686 -95.96484375 171.55859375 C-95.79433507 173.86528736 -95.6231067 176.17192788 -95.45117188 178.47851562 C-95.36665771 179.62618408 -95.28214355 180.77385254 -95.19506836 181.95629883 C-95.02347806 184.27545153 -94.84997805 186.59446372 -94.67456055 188.91333008 C-92.94992482 211.72504676 -91.81092396 234.51070787 -91.86962891 257.39208984 C-91.87511209 259.92681562 -91.8695589 262.46137237 -91.86328125 264.99609375 C-91.86012074 273.71340266 -92.0474472 282.32287325 -93 291 C-100.67707539 288.86342898 -108.11430475 286.17239744 -115.56509399 283.36260986 C-127.41085298 278.89696635 -139.28713343 274.51904127 -151.1953125 270.22265625 C-177.96821862 260.5590087 -204.6335093 250.72887097 -231 240 C-232.78204834 239.28432861 -232.78204834 239.28432861 -234.60009766 238.55419922 C-236.23084229 237.89121826 -236.23084229 237.89121826 -237.89453125 237.21484375 C-238.8378833 236.83320068 -239.78123535 236.45155762 -240.75317383 236.05834961 C-243 235 -243 235 -245 233 C-245.24609566 230.00524712 -245.24609566 230.00524712 -245.24050903 226.07785034 C-245.24221788 225.35743628 -245.24392673 224.63702221 -245.24568737 223.89477742 C-245.24899481 221.46865176 -245.23795814 219.04279961 -245.22705078 216.61669922 C-245.22648694 214.88243618 -245.2268027 213.14817267 -245.22793579 211.41390991 C-245.22851135 206.69512906 -245.21672421 201.97644918 -245.20278788 197.25769186 C-245.19031433 192.33025717 -245.18911269 187.40282036 -245.18673706 182.47537231 C-245.18051234 173.13976753 -245.16408813 163.8042094 -245.14403808 154.46862519 C-245.1217099 143.84242718 -245.11069342 133.21622698 -245.10064721 122.59001136 C-245.07972274 100.72664817 -245.04452754 78.86332702 -245 57 C-241.67929219 56.2054702 -238.3582309 55.41242743 -235.03710938 54.61962891 C-233.64271637 54.28597069 -233.64271637 54.28597069 -232.22015381 53.9455719 C-224.00199362 51.98506423 -215.7590359 50.154503 -207.5 48.375 C-199.04728212 46.54749682 -190.60362692 44.6913039 -182.18017578 42.73242188 C-175.58854435 41.21431238 -168.97755421 39.78092855 -162.36914062 38.33789062 C-156.32217488 37.00467363 -150.30303653 35.5918667 -144.30078125 34.0703125 C-135.40380523 31.81831524 -126.45714065 29.80922523 -117.5 27.8125 C-115.74995317 27.42078206 -113.99995425 27.02885004 -112.25 26.63671875 C-108.6290894 25.82551352 -105.00797844 25.0152118 -101.38671875 24.20556641 C-93.74587276 22.496475 -86.10759869 20.77597526 -78.46923828 19.05581665 C-75.99914419 18.49980736 -73.52889417 17.94449612 -71.05859375 17.3894043 C-63.33276216 15.65302251 -55.60787193 13.9127331 -47.88598633 12.15887451 C-44.28891407 11.34212581 -40.69135013 10.52755472 -37.09375 9.71313477 C-35.3994943 9.32896101 -33.70547283 8.94375239 -32.01171875 8.55737305 C-21.37945392 6.13226337 -10.73438112 3.9257877 0 2 C0 1.34 0 0.68 0 0 Z " fill="#F3AC18" transform="translate(501,199)"/>
<path d="M0 0 C1.53515625 1.55859375 1.53515625 1.55859375 3.0625 3.4375 C6.48517734 7.49318864 10.17218384 11.20434033 13.94921875 14.92919922 C17.19835854 18.15267616 20.22383849 21.49270269 23.19140625 24.97265625 C25.36958492 27.41428634 27.67248008 29.70048032 30 32 C32.93118191 34.89591958 35.76403174 37.80242571 38.4375 40.9375 C41.30172355 44.28925096 44.36334093 47.40556417 47.5 50.5 C51.2184599 54.1684722 54.73668192 57.93149226 58.125 61.90625 C60.93600311 65.04520347 63.95267797 67.97350681 66.95092773 70.93139648 C70.19245053 74.14617129 73.21518604 77.4720123 76.1640625 80.953125 C79.27460298 84.42104673 82.68140602 87.59471779 86.05859375 90.80078125 C88 93 88 93 88 96 C87.41847168 96.30067383 86.83694336 96.60134766 86.23779297 96.91113281 C75.72315177 102.35463518 65.23837452 107.83555712 54.875 113.5625 C44.79125133 119.12002594 34.56112613 124.38038122 24.3125 129.625 C23.49804413 130.04182037 22.68358826 130.45864075 21.8444519 130.88809204 C18.65981788 132.51767491 15.47510015 134.14709402 12.29023743 135.77622986 C1.48647946 141.30566237 -9.23724953 146.97742887 -19.9296875 152.71875 C-20.54663986 153.04985779 -21.16359222 153.38096558 -21.79924011 153.72210693 C-24.85406899 155.36177941 -27.90783957 157.00334821 -30.95922852 158.64941406 C-52.06412986 170 -52.06412986 170 -55 170 C-55 171.65 -55 173.3 -55 175 C-55.26425781 174.41863281 -55.52851562 173.83726562 -55.80078125 173.23828125 C-58.62804627 167.96133384 -63.2663178 163.67634113 -67.5 159.5 C-71.2118719 155.83729197 -74.61011518 151.96020571 -78 148 C-78.90739364 146.94517618 -79.81495908 145.89050014 -80.72265625 144.8359375 C-83.31204406 141.82490283 -85.89256074 138.80638093 -88.47119141 135.78613281 C-89.89627954 134.12117836 -91.32803478 132.46223918 -92.76171875 130.8046875 C-99.66701665 122.78307711 -106.10124722 114.44354383 -112.48046875 106 C-113.84948237 104.19811061 -115.23183908 102.40824597 -116.625 100.625 C-129.44220405 84.19268712 -141.13597626 66.91088954 -152.1875 49.25 C-152.68193604 48.47470947 -153.17637207 47.69941895 -153.68579102 46.90063477 C-154.13365967 46.17545654 -154.58152832 45.45027832 -155.04296875 44.703125 C-155.44539795 44.06020508 -155.84782715 43.41728516 -156.26245117 42.75488281 C-157 41 -157 41 -156 38 C-154.2512207 36.97607422 -154.2512207 36.97607422 -151.92578125 36.0546875 C-151.04704346 35.70470703 -150.16830566 35.35472656 -149.26293945 34.99414062 C-148.28929443 34.62482422 -147.31564941 34.25550781 -146.3125 33.875 C-145.28793701 33.48248047 -144.26337402 33.08996094 -143.20776367 32.68554688 C-104.81658659 18.30927631 -64.22382466 10.09332626 -24.14208984 2.04785156 C-20.88375858 1.39175488 -17.63594189 0.70413302 -14.39306641 -0.02441406 C-13.35240776 -0.25192856 -13.35240776 -0.25192856 -12.29072571 -0.48403931 C-10.48323002 -0.88086744 -8.67859719 -1.29067609 -6.87426758 -1.70166016 C-3.75063836 -2.02588295 -2.55454849 -1.75084146 0 0 Z " fill="#FED11F" transform="translate(167,161)"/>
<path d="M0 0 C3.69920463 1.23306821 4.09927525 2.29177019 6.125 5.546875 C6.73964111 6.52269531 7.35428223 7.49851562 7.98754883 8.50390625 C8.65165771 9.57511719 9.3157666 10.64632813 10 11.75 C11.43982533 14.03747651 12.88119561 16.32392036 14.32421875 18.609375 C14.70076096 19.20754028 15.07730316 19.80570557 15.46525574 20.42199707 C19.82647005 27.33887232 24.31862541 34.16889915 28.8125 41 C30.42240636 43.45017205 32.03161807 45.90079973 33.640625 48.3515625 C34.02215225 48.93251678 34.4036795 49.51347107 34.79676819 50.11203003 C37.90770046 54.85203375 40.99164447 59.60896933 44.0625 64.375 C47.73212305 70.06864409 51.46547472 75.71575031 55.23486328 81.34375 C59.77256729 88.13151079 64.1946847 94.99312208 68.61767578 101.85595703 C70.8664242 105.34386036 73.12055197 108.82827891 75.375 112.3125 C76.04994507 113.35579468 76.04994507 113.35579468 76.73852539 114.42016602 C82.47837363 123.28918667 88.24006606 132.14401716 94 141 C100.62402343 151.18453309 107.24425119 161.37138923 113.84082031 171.57373047 C117.34484441 176.99145195 120.85813473 182.40310654 124.375 187.8125 C124.91463379 188.64257568 125.45426758 189.47265137 126.01025391 190.32788086 C128.8284317 194.66215638 131.64797406 198.99553994 134.46875 203.328125 C140.02117758 211.85909591 145.56970698 220.39051725 151 229 C147.38852527 230.30287711 145.43110112 229.69406241 141.91796875 228.2890625 C140.86544922 227.87744873 139.81292969 227.46583496 138.72851562 227.04174805 C137.55998047 226.57422119 136.39144531 226.10669434 135.1875 225.625 C132.55889794 224.59532605 129.92622583 223.57629627 127.29296875 222.55859375 C126.57430634 222.28008072 125.85564392 222.00156769 125.11520386 221.71461487 C116.14120649 218.25443268 107.08375211 215.02511378 98.03167725 211.77618408 C70.45331671 201.87271492 42.98889856 191.71371314 15.8125 180.75 C15.11698029 180.47087769 14.42146057 180.19175537 13.7048645 179.9041748 C11.76568685 179.12416844 9.8296246 178.3369507 7.89453125 177.546875 C6.79987549 177.10182617 5.70521973 176.65677734 4.57739258 176.19824219 C2 175 2 175 0 173 C-0.24609566 170.05209923 -0.24609566 170.05209923 -0.24050903 166.19174194 C-0.24221788 165.48357854 -0.24392673 164.77541513 -0.24568737 164.04579222 C-0.24899459 161.66112342 -0.23795852 159.27673294 -0.22705078 156.89208984 C-0.22648693 155.18738308 -0.22680271 153.48267584 -0.22793579 151.77796936 C-0.22851133 147.13976373 -0.2167245 142.50166082 -0.20278788 137.86347914 C-0.19031402 133.02012619 -0.18911267 128.17677107 -0.18673706 123.33340454 C-0.18051243 114.15717122 -0.16408835 104.98098536 -0.14403808 95.80477297 C-0.12170961 85.3599501 -0.11069334 74.91512501 -0.10064721 64.47028422 C-0.07972295 42.98016296 -0.04452793 21.49008446 0 0 Z " fill="#F3AC18" transform="translate(256,259)"/>
<path d="M0 0 C4.50128655 1.37937846 8.52483551 3.17280082 12.69921875 5.34375 C13.32699219 5.66875992 13.95476562 5.99376984 14.6015625 6.32862854 C16.63246199 7.38147724 18.66002975 8.44056486 20.6875 9.5 C22.10180784 10.23525552 23.51627841 10.97019809 24.9309082 11.70483398 C28.36219209 13.48829562 31.79067395 15.27705511 35.21777344 17.06854248 C36.763179 17.87622859 38.30926282 18.68261668 39.85546875 19.48876953 C50.42681979 25.00212914 60.93036466 30.64058476 71.43276978 36.28387451 C79.8784562 40.82029413 88.35841692 45.28528873 96.875 49.6875 C105.81520071 54.31040012 114.73885136 58.96602698 123.49487305 63.93164062 C127.32146147 66.09090194 130.95370793 68.09756786 135.15234375 69.42578125 C139.17797741 70.86255437 141.09883634 71.83993327 144 75 C145.08289158 78.63215116 145.37554172 82.28827211 145.69921875 86.0546875 C145.81204193 87.15873428 145.92486511 88.26278107 146.04110718 89.40028381 C146.39101529 92.93145561 146.70101907 96.4641742 147 100 C147.09803925 101.12657013 147.19607849 102.25314026 147.29708862 103.41384888 C147.88324137 110.2574627 148.40033474 117.10447736 148.88037109 123.95629883 C149.12468829 127.4330642 149.38004344 130.90889305 149.63671875 134.38476562 C151.20674464 156.03575999 152.18607217 177.68152307 152.13037109 199.39208984 C152.12488791 201.92681562 152.1304411 204.46137237 152.13671875 206.99609375 C152.13987926 215.71340266 151.9525528 224.32287325 151 233 C148.46403686 231.73201843 148.11187089 230.61141048 146.8125 228.11328125 C143.83651078 222.60182753 140.44868125 217.41226102 137 212.1875 C135.66129619 210.14724179 134.32275753 208.10687523 132.984375 206.06640625 C132.31599609 205.04949707 131.64761719 204.03258789 130.95898438 202.98486328 C128.04215385 198.54054997 125.14504349 194.08352451 122.25 189.625 C121.71697266 188.80475342 121.18394531 187.98450684 120.63476562 187.1394043 C116.80180737 181.23968949 112.97874271 175.33361427 109.15869141 169.42553711 C103.45499861 160.6067189 97.72624401 151.80418408 92 143 C85.82478663 133.50551896 79.64980459 124.01096579 73.5 114.5 C61.94911483 96.58702196 61.94911483 96.58702196 50.1875 78.8125 C44.9527654 71.02111446 39.93002045 63.09495075 34.88354492 55.1809082 C31.30917915 49.58318932 27.71306965 44.00669146 24 38.5 C19.80308365 32.26560317 15.7165044 25.96094997 11.6550293 19.63769531 C10.58639008 17.97467777 9.51490668 16.31348898 8.44335938 14.65234375 C7.78271484 13.62109375 7.12207031 12.58984375 6.44140625 11.52734375 C5.85045166 10.60687256 5.25949707 9.68640137 4.65063477 8.73803711 C2.93548503 5.89298397 1.44687872 2.98915301 0 0 Z " fill="#F6CA1F" transform="translate(257,257)"/>
<path d="M0 0 C0.99 0.495 0.99 0.495 2 1 C-8.23288021 17.06505933 -18.58033797 33.04817109 -29.02197266 48.97851562 C-36.33598536 60.15084606 -43.59123292 71.36162297 -50.84179688 82.57519531 C-57.09843192 92.24905455 -63.3845959 101.90374857 -69.66601562 111.56152344 C-71.31916709 114.10341379 -72.97215218 116.64541219 -74.625 119.1875 C-75.43904297 120.43950195 -75.43904297 120.43950195 -76.26953125 121.71679688 C-79.6453365 126.91065628 -83.01288954 132.10976807 -86.375 137.3125 C-91.37657981 145.05154336 -96.41173009 152.76852282 -101.44824219 160.48486328 C-105.62562081 166.88698833 -109.78874054 173.29805083 -113.9375 179.71875 C-117.99516982 185.99733378 -122.06939235 192.26509355 -126.14697266 198.53076172 C-128.80421192 202.61546325 -131.45605995 206.70342321 -134.09375 210.80078125 C-134.58423828 211.56197266 -135.07472656 212.32316406 -135.58007812 213.10742188 C-136.49170641 214.52314173 -137.40198126 215.93973454 -138.31054688 217.35742188 C-141.08605028 221.66573059 -143.99318214 225.84951748 -147 230 C-150.48940339 224.76589491 -150.15781905 219.04728044 -150.16796875 212.921875 C-150.17220352 212.13548141 -150.17643829 211.34908783 -150.18080139 210.53886414 C-150.19077716 207.94252295 -150.19069112 205.34635728 -150.1875 202.75 C-150.18689575 201.84597443 -150.1862915 200.94194885 -150.18566895 200.01052856 C-149.9886706 90.13229828 -149.9886706 90.13229828 -141 74 C-138.26758566 72.04986224 -135.30743943 70.73992316 -132.25 69.375 C-130.39792789 68.49991788 -128.54772323 67.62087458 -126.69921875 66.73828125 C-125.7457959 66.28662598 -124.79237305 65.8349707 -123.81005859 65.36962891 C-119.47333873 63.25590185 -115.2745372 60.91235212 -111.0625 58.5625 C-100.92092698 52.95294535 -90.62922104 47.65250483 -80.3125 42.375 C-79.49831604 41.9583609 -78.68413208 41.5417218 -77.84527588 41.11245728 C-74.66034121 39.48270212 -71.47535859 37.8530408 -68.29019165 36.22373962 C-55.65246304 29.75570925 -43.12990558 23.07708729 -30.61569214 16.37414551 C-28.77666778 15.38928156 -26.93729552 14.40506968 -25.09790039 13.42089844 C-20.03534731 10.71051653 -14.9760696 7.99565358 -9.9453125 5.2265625 C-9.23922852 4.84064941 -8.53314453 4.45473633 -7.80566406 4.05712891 C-6.03130086 3.08558203 -4.26151418 2.10568915 -2.4921875 1.125 C-1.25855469 0.568125 -1.25855469 0.568125 0 0 Z " fill="#FCE649" transform="translate(253,257)"/>
<path d="M0 0 C0.99 0.495 0.99 0.495 2 1 C1.67 77.56 1.34 154.12 1 233 C-7.32317482 225.86585015 -15.01802083 218.43078326 -22.125 210.09375 C-24.48345248 207.46014473 -26.98445404 204.98173486 -29.5 202.5 C-33.21845505 198.83152419 -36.73668195 195.06850771 -40.125 191.09375 C-42.93600311 187.95479653 -45.95267797 185.02649319 -48.95092773 182.06860352 C-52.20000607 178.84633552 -55.22443863 175.50659355 -58.19140625 172.02734375 C-60.36958492 169.58571366 -62.67248008 167.29951968 -65 165 C-67.93118191 162.10408042 -70.76403174 159.19757429 -73.4375 156.0625 C-77.25126138 151.59182278 -81.44702813 147.52283732 -85.64453125 143.41796875 C-88 141 -88 141 -90 138 C-89.65821715 134.21210054 -88.33479721 131.44462511 -86.4453125 128.18359375 C-85.91881104 127.26513672 -85.39230957 126.34667969 -84.84985352 125.40039062 C-84.28065186 124.42263672 -83.7114502 123.44488281 -83.125 122.4375 C-81.92723864 120.35352327 -80.73064288 118.26887622 -79.53515625 116.18359375 C-78.63627686 114.61907471 -78.63627686 114.61907471 -77.71923828 113.02294922 C-75.72096918 109.50937808 -73.78719115 105.96451826 -71.86547852 102.40869141 C-54.54819446 70.39588937 -34.36524626 39.21530213 -10.6875 11.5 C-10.19588379 10.92443359 -9.70426758 10.34886719 -9.19775391 9.75585938 C-6.26083714 6.35658543 -3.21445051 3.1383342 0 0 Z " fill="#FCE649" transform="translate(255,22)"/>
<path d="M0 0 C3.98483168 1.99241584 6.37587323 4.16045127 9.3125 7.375 C9.8295752 7.93952881 10.34665039 8.50405762 10.87939453 9.08569336 C18.18879594 17.24731683 24.58963794 26.12845749 31 35 C31.90202148 36.24475098 31.90202148 36.24475098 32.82226562 37.51464844 C41.81727071 49.98477297 50.08382895 62.82244199 58 76 C58.52948242 76.87881836 59.05896484 77.75763672 59.60449219 78.66308594 C67.81436487 92.32291666 75.71439024 106.15605592 83.39794922 120.11865234 C84.50256113 122.10533778 85.63072846 124.07904629 86.77783203 126.04150391 C87.33712402 127.01394043 87.89641602 127.98637695 88.47265625 128.98828125 C88.9819165 129.85622314 89.49117676 130.72416504 90.01586914 131.6184082 C91 134 91 134 90.76733398 136.171875 C89.6519094 138.82930398 87.95547689 140.57925148 86 142.6875 C85.18789063 143.56535156 84.37578125 144.44320312 83.5390625 145.34765625 C80.44985527 148.57468965 77.28991896 151.72270061 74.109375 154.859375 C72.19188514 156.80527212 70.39799785 158.79805966 68.625 160.875 C65.737852 164.24557743 62.65753002 167.38503864 59.5 170.5 C56.38420505 173.57390191 53.34122742 176.66702168 50.5 180 C47.2176661 183.85043015 43.64745151 187.38145579 40.04907227 190.93139648 C36.79999393 194.15366448 33.77556137 197.49340645 30.80859375 200.97265625 C27.82349884 204.31879936 24.59117232 207.41593952 21.40234375 210.56640625 C19.36285627 212.63242365 17.444922 214.73005549 15.5625 216.9375 C12.56113162 220.44269521 9.38001014 223.73243639 6.125 227 C5.63588135 227.49363037 5.1467627 227.98726074 4.64282227 228.49584961 C1.12378435 232 1.12378435 232 0 232 C0 155.44 0 78.88 0 0 Z " fill="#FBB217" transform="translate(256,23)"/>
<path d="M0 0 C1.36825035 0.18124641 2.73250033 0.39439898 4.09204102 0.63232422 C4.83812119 0.74254913 5.58420135 0.85277405 6.35289001 0.96633911 C8.77450593 1.33811006 11.18424249 1.75581994 13.59594727 2.18701172 C14.37834778 2.32377319 15.16074829 2.46053467 15.96685791 2.60144043 C21.885539 3.65259941 27.77288913 4.84041595 33.65844727 6.06201172 C34.58871735 6.25342743 35.51898743 6.44484314 36.47744751 6.64205933 C68.1231368 13.181369 100.13291276 20.2726786 130.59594727 31.18701172 C131.41401855 31.47833984 132.23208984 31.76966797 133.07495117 32.06982422 C145.71339098 36.60709309 145.71339098 36.60709309 150.59594727 39.18701172 C150.59594727 40.17701172 150.59594727 41.16701172 150.59594727 42.18701172 C137.06180346 45.71861164 123.41299077 48.74603387 109.76576233 51.80215454 C105.17465372 52.83080058 100.58585042 53.86918383 95.99829102 54.91357422 C82.72072544 57.93335975 69.43199485 60.88064645 56.11813354 63.73544312 C41.8879429 66.78706005 27.71889041 70.01403694 13.5793457 73.46484375 C-1.24770427 77.05391198 -16.12274517 80.37795655 -31.06835938 83.43334961 C-37.80983316 84.82243726 -44.45490231 86.42414 -51.11889648 88.14794922 C-57.71854024 89.79826385 -64.40248919 91.0942645 -71.07006836 92.43701172 C-77.28205252 93.69802421 -77.28205252 93.69802421 -83.40405273 95.32763672 C-86.54222842 96.2265933 -89.15717888 96.34539581 -92.40405273 96.18701172 C-90.74670107 91.83778314 -87.49251177 89.09566127 -84.21655273 85.93701172 C-80.00383074 81.80701603 -75.96109758 77.64506706 -72.14233398 73.14404297 C-69.18680211 69.81657899 -65.9712355 66.74737123 -62.80639648 63.62060547 C-60.766909 61.55458807 -58.84897474 59.45695622 -56.96655273 57.24951172 C-54.10232919 53.89776076 -51.04071181 50.78144755 -47.90405273 47.68701172 C-44.78826151 44.61310645 -41.74528035 41.51999027 -38.90405273 38.18701172 C-35.62171883 34.33658157 -32.05150425 30.80555592 -28.453125 27.25561523 C-25.20796208 24.03723035 -22.18596456 20.7027343 -19.22436523 17.22607422 C-16.21702668 13.85733876 -12.96861306 10.73262249 -9.73608398 7.58154297 C-7.33239899 5.28187654 -7.33239899 5.28187654 -5.72680664 2.50952148 C-3.40405273 0.18701172 -3.40405273 0.18701172 0 0 Z " fill="#F3DD48" transform="translate(350.404052734375,158.81298828125)"/>
<path d="M0 0 C1.53515625 1.55859375 1.53515625 1.55859375 3.0625 3.4375 C6.48517734 7.49318864 10.17218384 11.20434033 13.94921875 14.92919922 C17.19835854 18.15267616 20.22383849 21.49270269 23.19140625 24.97265625 C25.36958492 27.41428634 27.67248008 29.70048032 30 32 C32.93118191 34.89591958 35.76403174 37.80242571 38.4375 40.9375 C41.30172355 44.28925096 44.36334093 47.40556417 47.5 50.5 C51.2184599 54.1684722 54.73668192 57.93149226 58.125 61.90625 C60.93531289 65.04443273 63.95118637 67.9720669 66.94873047 70.92919922 C70.21184533 74.16535547 73.25765822 77.51479703 76.23046875 81.015625 C79.08206687 84.21344364 82.18504523 87.15394985 85.27734375 90.1171875 C87 92 87 92 87 94 C81.22542419 93.35422951 75.62125895 92.37738515 69.9453125 91.14453125 C69.09535202 90.96258713 68.24539154 90.78064301 67.36967468 90.59318542 C64.62062421 90.00338732 61.87276371 89.40826186 59.125 88.8125 C57.20793471 88.39905016 55.29086108 87.98563898 53.3737793 87.57226562 C40.40950524 84.76994933 27.47215245 81.86695351 14.55957031 78.83496094 C7.10499046 77.08635579 -0.35314238 75.35309917 -7.8125 73.625 C-8.63875885 73.4334433 -9.4650177 73.2418866 -10.3163147 73.04452515 C-23.42627438 70.00936195 -36.56386384 67.12286964 -49.7232666 64.31066895 C-60.20480377 62.068832 -70.63914367 59.69248214 -81.05102539 57.14331055 C-89.5785017 55.06814852 -98.14559884 53.21533123 -106.73242188 51.40332031 C-113.72220292 49.92538153 -120.70069458 48.40686356 -127.671875 46.84375 C-128.49322433 46.65980682 -129.31457367 46.47586365 -130.16081238 46.28634644 C-133.4375795 45.5519726 -136.71418962 44.81698856 -139.9894104 44.07574463 C-142.26448664 43.56085973 -144.5403725 43.04969515 -146.81640625 42.5390625 C-147.49946838 42.38312622 -148.18253052 42.22718994 -148.8862915 42.06652832 C-151.66653772 41.44534436 -154.13950055 41 -157 41 C-156 38 -156 38 -154.2512207 36.97607422 C-153.48382568 36.6720166 -152.71643066 36.36795898 -151.92578125 36.0546875 C-151.04704346 35.70470703 -150.16830566 35.35472656 -149.26293945 34.99414062 C-148.28929443 34.62482422 -147.31564941 34.25550781 -146.3125 33.875 C-145.28793701 33.48248047 -144.26337402 33.08996094 -143.20776367 32.68554688 C-104.81658659 18.30927631 -64.22382466 10.09332626 -24.14208984 2.04785156 C-20.88375858 1.39175488 -17.63594189 0.70413302 -14.39306641 -0.02441406 C-13.35240776 -0.25192856 -13.35240776 -0.25192856 -12.29072571 -0.48403931 C-10.48323002 -0.88086744 -8.67859719 -1.29067609 -6.87426758 -1.70166016 C-3.75063836 -2.02588295 -2.55454849 -1.75084146 0 0 Z " fill="#FBB217" transform="translate(167,161)"/>
<path d="M0 0 C0.66 0.33 1.32 0.66 2 1 C4.63161133 1.24728598 7.23679579 1.42973102 9.875 1.5625 C11.09183472 1.62618774 11.09183472 1.62618774 12.33325195 1.69116211 C24.5450993 2.25090463 36.77902173 2.08547978 49 2 C45.61029064 8.30227213 41.93617984 14.33852079 38 20.3125 C36.84627777 22.07547084 35.6926342 23.83849316 34.5390625 25.6015625 C33.95286133 26.49520508 33.36666016 27.38884766 32.76269531 28.30957031 C29.95520678 32.59468438 27.16551027 36.89131873 24.375 41.1875 C23.84003906 42.00992188 23.30507812 42.83234375 22.75390625 43.6796875 C20.13236295 47.71086843 17.51697196 51.74582103 14.9140625 55.7890625 C14.42244629 56.5519458 13.93083008 57.3148291 13.42431641 58.10083008 C12.51103185 59.51897282 11.59912276 60.93800287 10.68896484 62.3581543 C7.91364686 66.66623179 5.00664441 70.84975691 2 75 C-1.59393444 69.60909834 -1.1486261 63.59427297 -1.1328125 57.32421875 C-1.13413177 56.48916809 -1.13545105 55.65411743 -1.1368103 54.79376221 C-1.13871872 52.09163646 -1.13241034 49.38961512 -1.125 46.6875 C-1.12411377 45.772034 -1.12322754 44.85656799 -1.12231445 43.9133606 C-1.10560605 29.25607399 -0.81716875 14.63731785 0 0 Z " fill="#F3DC48" transform="translate(104,412)"/>
<path d="M0 0 C0.66 0.33 1.32 0.66 2 1 C-2.46351289 6.22325977 -7.0744893 11.20922972 -12 16 C-12.66 15.67 -13.32 15.34 -14 15 C-9.38 10.05 -4.76 5.1 0 0 Z " fill="#FDD846" transform="translate(255,22)"/>
</svg>
